<?xml version="1.0" encoding="utf-8"?>
<!-- Generator: Adobe Illustrator 21.1.0, SVG Export Plug-In . SVG Version: 6.00 Build 0)  -->
<svg version="1.1" id="Layer_1" xmlns="http://www.w3.org/2000/svg" xmlns:xlink="http://www.w3.org/1999/xlink" x="0px" y="0px"
	 viewBox="0 0 473 485.1" style="enable-background:new 0 0 473 485.1;" xml:space="preserve">
<style type="text/css">
	.st0{fill:#FFFFFF;}
	.st1{fill:#3E8EDE;}
	.st2{fill:#D9272E;}
</style>
<title>logo-2</title>
<metadata><?xpacket begin="﻿" id="W5M0MpCehiHzreSzNTczkc9d"?>
<x:xmpmeta xmlns:x="adobe:ns:meta/" x:xmptk="Adobe XMP Core 5.6-c137 79.159768, 2016/08/11-13:24:42        ">
   <rdf:RDF xmlns:rdf="http://www.w3.org/1999/02/22-rdf-syntax-ns#">
      <rdf:Description rdf:about=""
            xmlns:dc="http://purl.org/dc/elements/1.1/">
         <dc:title>
            <rdf:Alt>
               <rdf:li xml:lang="x-default">logo-2</rdf:li>
            </rdf:Alt>
         </dc:title>
      </rdf:Description>
   </rdf:RDF>
</x:xmpmeta>
                                                                                                    
                                                                                                    
                                                                                                    
                                                                                                    
                                                                                                    
                                                                                                    
                                                                                                    
                                                                                                    
                                                                                                    
                                                                                                    
                                                                                                    
                                                                                                    
                                                                                                    
                                                                                                    
                                                                                                    
                                                                                                    
                                                                                                    
                                                                                                    
                                                                                                    
                                                                                                    
                           
<?xpacket end="w"?></metadata>
<g>
	<path class="st0" d="M38.5,210.8H39c-0.3-2.2-0.5-4.5-0.5-6.7V210.8z"/>
	<path class="st0" d="M228.2,187.4h0.1c0.8,0,1.4-0.6,1.4-1.4v-0.1c0-0.8-0.5-1.5-1.3-1.5c0,0,0,0,0,0h-0.2c-0.8,0-1.4,0.6-1.4,1.4
		l0.1,0.1C226.8,186.6,227.4,187.3,228.2,187.4z"/>
	<path class="st0" d="M255.6,184.3L255.6,184.3l-0.1,0.1c-0.9,0.1-1.6,0.9-1.6,1.8h3.1C257.1,185.3,256.4,184.5,255.6,184.3z"/>
	<path class="st0" d="M227.2,190.5c-0.5,0.2-0.8,0.6-0.8,1.1c0,0.7,0.8,1.2,2.1,1.2c1.3,0,2-0.4,2-1.1
		C230.5,190.6,228.1,190.8,227.2,190.5z"/>
	<path class="st0" d="M324.1,139.7c0.1,0.1,0.2,0.2,0.4,0.3C324.3,139.9,324.2,139.9,324.1,139.7L324.1,139.7
		c-0.2-0.2-0.3-0.4-0.4-0.5c0.1,0.1,0.2,0.2,0.3,0.3L324.1,139.7z"/>
	<path class="st0" d="M326.8,140.7c0.4,0.5,0.4,1.2,0,1.7c-0.1,0.1-0.4,0.7-0.3,0.8c0.1,0.1,0.5,0.8,0.6,1c0.3,0.6,0.2,1.3-0.3,1.8
		c-0.5,0.5-1.1,0.9-1.8,1.1c0,0-0.1,0-0.1,0.1c0,0.1,0,0.2,0.1,0.2c0.6,0.3,1.3,0.4,2,0.4c0.9,0-0.2,1.3-0.7,2.5
		c-0.1,0.4-0.2,0.8-0.4,1.2c-0.7,2-2,3.7-3.8,4.9c-2.2,1.5-4.8,2-7.4,1.7l-5.9,3.4c2.4,0.3,4.8,0.4,7.2,0.4c5.9,0,11.7-0.8,17.4-2.5
		c1.4-0.4,2.9-1,4.2-1.6c3.6-1.5,6.9-3.8,9.5-6.7l0.2-0.3c0.5-0.9-0.1-1.4,1.1-2.6c0.8-0.8-0.1-2.3,0.1-2.5c0.2,0,0.4,0,0.5,0
		c-0.9-1.7-1.4-3.7-1.4-5.6c0-0.2,0.1-0.5,0.3-0.7l-0.1-1.7c-1.1-0.2-1.9-1.1-2-2.2c0-0.1,0-0.2,0-0.3c-1.3-0.2-2.9-0.5-4.8-1
		c-7.8-2-10.2-4.2-10.2-4.2c0.4-0.7,1.1-1.4,1.8-1.9c1.5-0.7,2.7-1.8,3.5-3.2c0.6-1.2,3-6.5,3.6-6.8c1.5-0.8,3.2-1.2,4.9-1
		c-0.5-0.4-0.9-1-1-1.6c0-0.1,0-0.3,0-0.4l-17.9,10.4c-0.6,0.3-0.9,0.9-0.9,1.6v13.4c0.1,0,0.3,0,0.4,0
		C325.8,140.2,326.3,140,326.8,140.7z M337.9,157.7c-1.4,0.6-2.8,1.1-4.2,1.6l-8.8-5.1c0.6-0.9,1.2-1.8,1.5-2.8V151L337.9,157.7z"/>
	<path class="st0" d="M187.8,160.1C187.8,160.1,187.8,160.1,187.8,160.1l7.5,0v0c0.2,0,0.4-0.2,0.4-0.4c0-0.4-0.1-0.7-0.2-1.1
		c-0.3-0.9-1-1.7-1.9-2.1c-0.5-0.2-1.1-0.3-1.7-0.3c-1.1,0-2.2,0.4-3.1,1.1c-0.7,0.6-1.2,1.5-1.3,2.4
		C187.5,159.9,187.6,160.1,187.8,160.1z"/>
	<path class="st0" d="M200.9,128.6C200.9,128.6,200.9,128.6,200.9,128.6l7.5,0v0c0.2,0,0.4-0.2,0.4-0.4c0-0.4-0.1-0.7-0.2-1.1
		c-0.3-0.9-1-1.7-1.9-2.1c-0.5-0.2-1.1-0.3-1.7-0.3c-1.1,0-2.2,0.4-3.1,1.1c-0.7,0.6-1.2,1.5-1.3,2.4
		C200.5,128.4,200.7,128.6,200.9,128.6z"/>
	<path class="st0" d="M127.5,184.3L127.5,184.3c-1,0.1-1.7,0.9-1.7,1.8h3.1C129,185.3,128.4,184.5,127.5,184.3z"/>
	<path class="st0" d="M171.1,133.7c0.4,0.5,0.9,0.9,1.4,1.2c1.3,0.6,2.8,0.6,4,0c0.6-0.3,1.1-0.7,1.5-1.2c0.4-0.5,0.7-1.1,0.9-1.7
		c0.2-0.6,0.3-1.3,0.3-1.9c0-0.6-0.1-1.3-0.3-1.9c-0.2-0.6-0.5-1.2-0.9-1.7c-0.4-0.5-0.9-0.9-1.5-1.2c-0.6-0.3-1.3-0.5-2-0.5
		c-0.7,0-1.4,0.1-2.1,0.5c-0.6,0.3-1,0.7-1.4,1.2c-0.4,0.5-0.7,1.1-0.9,1.7c-0.2,0.6-0.2,1.2-0.2,1.9c0,0.6,0.1,1.3,0.3,1.9
		C170.4,132.6,170.7,133.2,171.1,133.7z"/>
	<path class="st0" d="M221.1,184.4c-1.2,0-1.9,1-1.9,2.5l0,0c0,1.5,0.7,2.5,1.9,2.5c1.2,0,1.9-1,1.9-2.5
		C223,185.4,222.3,184.4,221.1,184.4z"/>
	<path class="st0" d="M120.5,184.3L120.5,184.3L120.5,184.3c-1,0.1-1.7,0.9-1.7,1.8h3.1C122,185.3,121.4,184.5,120.5,184.3z"/>
	<path class="st0" d="M346.3,135.6c0.1,0.6,0.6,1.1,1.1,1.4l0-0.1c0.1,0,0.1-0.1,0.1-0.1v-1.1c0-0.1-0.1-0.1-0.1-0.1l-1-0.2
		c0,0,0,0,0,0C346.4,135.5,346.3,135.6,346.3,135.6z"/>
	<path class="st0" d="M345.4,114c-0.2,0.2-0.3,0.4-0.3,0.6c0,0.5,0.4,0.9,0.9,1c0.5,0,0.9-0.4,1-0.9c0-0.2-0.1-0.5-0.2-0.6
		C346.3,113.8,345.8,113.8,345.4,114z"/>
	<path class="st0" d="M336,127.2c-0.5,0.4-2,1.5-2.6,2.1c-0.3,0.3-0.2,0.4,0,0.6c0.7,0.4,1.4,0.8,2.2,1h0.1c0.3,0.1,0.7-0.2,0.8-0.5
		v0c0.5-1,1.1-3.8,4.5-11.6C339.6,119.5,337.8,125.7,336,127.2z"/>
	<path class="st0" d="M321.6,142.5L321.6,142.5c1.1,0,1.6-0.6,1.6-1.1c0-0.3-0.1-0.6-0.2-0.8c0,0.2-0.1,0.4-0.3,0.6
		c-0.3,0.1-0.6,0-0.8-0.2c-0.3-0.3-0.3-0.9,0-1.2c0.1-0.1,0.3-0.1,0.4,0c-0.5-0.3-1-0.4-1.3,0c-0.4,0.7-0.5,1.5-0.3,2.3
		C320.9,142.3,321.2,142.6,321.6,142.5z"/>
	<path class="st0" d="M198.9,184.3L198.9,184.3L198.9,184.3c-1,0.1-1.7,0.9-1.7,1.8h3.1C200.5,185.3,199.8,184.5,198.9,184.3z"/>
	<path class="st0" d="M235.5,184.3L235.5,184.3L235.5,184.3c-1,0.1-1.7,0.9-1.7,1.8h3.1C237,185.3,236.4,184.5,235.5,184.3z"/>
	<path class="st0" d="M327.6,177.4c-0.6,2.8-2.9,14.6-3.7,17.6c-0.6,1.4-2.3,2-3.7,1.4c-2.5-1.2-10.8-6.4-11.9-7
		c-1.6-0.8-2.8-1.5-2.8-3.1v-9.2c0-2.8,0-5.5-2.4-7.1l-1.1-0.8v19.5c0,0.6,0.3,1.2,0.9,1.6l19.4,11.2c0.6,0.3,1.2,0.3,1.8,0
		l19.4-11.2c0.6-0.3,0.9-0.9,0.9-1.6v-22.4c0-0.6-0.3-1.2-0.9-1.6l-2-1.1c-2.1,1.5-4.2,2.9-6.5,4.1
		C330.4,170.4,329.1,171,327.6,177.4z"/>
	<path class="st0" d="M136.5,186.9c0.2-1.2-0.7-2.3-1.9-2.4h-0.4v0c-0.4,0-0.7,0-1.1,0.2v4.6c0.3,0.2,0.7,0.2,1,0.2
		C135.7,189.5,136.5,188.5,136.5,186.9z"/>
	<path class="st0" d="M137.3,166.6c0.3,0.2,0.6,0.3,0.9,0.3c0.3,0.1,0.7,0.1,1,0.1c1.1,0.1,2.2-0.3,3.1-1.1c0.7-0.8,1.1-1.9,1.1-3
		l0.1-0.6h-0.9c-0.7,0-1.3,0-2.1,0.1c-0.7,0-1.3,0.2-2,0.4c-0.6,0.2-1.1,0.4-1.5,0.8c-0.4,0.4-0.6,0.9-0.6,1.4c0,0.3,0.1,0.7,0.3,1
		C136.8,166.3,137.1,166.5,137.3,166.6z"/>
	<path class="st0" d="M153.2,187.4h0.1c0.8,0,1.4-0.6,1.4-1.4v-0.1c0-0.8-0.5-1.5-1.3-1.5c0,0,0,0,0,0h-0.2c-0.8,0-1.4,0.6-1.4,1.4
		l0.1,0.1C151.8,186.6,152.4,187.3,153.2,187.4z"/>
	<path class="st0" d="M82.9,210l1.3,0.8h237.2V206c0-0.6-0.4-1.2-0.9-1.5l-19.4-11.2c-1.6-0.9-2.6-2.7-2.6-4.5v-22.4
		c0-0.9,0.2-1.8,0.7-2.6c-0.5,0.8-0.7,1.7-0.7,2.6v0.6c-4.8-3.5-9.3-7.3-13.7-11.3c-1.1-1-6.2-1.3-6-7.1c0-0.7,0.5-1.1,0.8-0.9
		c0.3,0.3,0.2,1.3,0.4,1.7c0-0.2,0.2-1.3,0.2-1.4c0.1-0.6,0.9-1,0.9-0.2c-0.1,1.1,0.2,2.2,0.8,3.1c0.4,0.6,0.8,0.7,1,0.6
		c1-0.5-0.8-2.5-0.2-3.2c0.1-0.1,0.6-0.2,1,0.5c1.1,1.8,1.4,1.4,2.5,2.5c0.3,0.3,0.8,1.7,1.1,1.9c4.7,3.7,10.2,6.2,16.1,7.4l0.1,0
		l6.9-4c-0.2-0.1-0.5-0.3-0.7-0.4c-0.9,0.5-1.9,0.7-3,0.6c0.6-2.7-0.5-2.4-1.8-5.2c-2.9-5.2-1.5-11.6,3.2-15.2
		c0.8-0.5,1.6-1,2.5-1.3c0.9-1.6,4-3.4,6.5-2.3c-1,0.3-1.8,1.2-1.8,2.3c2.1,0.2,4.1,1,5.8,2.2v-10.3c0-0.6-0.3-1.2-0.9-1.6l-9.8-5.7
		c-0.5-0.5-0.7-1.2-0.5-1.9c0.3-0.9,1.3-1.4,2.2-1.1l9.8,5.7c0.6,0.3,1.2,0.3,1.8,0l19.4-11.2c1.6-0.9,3.6-0.9,5.3,0l19.4,11.2
		c0.6,0.3,1.2,0.3,1.8,0l9.8-5.7c0.8-0.5,1.9-0.2,2.3,0.6c0.4,0.8,0.1,1.8-0.7,2.3l-9.8,5.7c-0.6,0.3-0.9,0.9-0.9,1.6v22.4
		c0,1.9-1,3.6-2.6,4.5l-19.4,11.2c-0.6,0.3-0.9,0.9-0.9,1.6V189c0,1.9-1,3.6-2.6,4.5l-19.4,11.2c-0.5,0.3-0.9,0.9-0.9,1.5v4.6h63.8
		l1.4-0.8c2.1-1.2,3.4-3.5,3.4-6V39.5H79.5V204C79.5,206.5,80.8,208.8,82.9,210z M285.1,113.3c0-0.2,0.2-0.4,0.4-0.4h3.3
		c0.2,0,0.4,0.2,0.4,0.4v11.2c0.2-0.4,0.4-0.7,0.7-1c0.3-0.3,0.7-0.6,1.1-0.9c0.4-0.3,0.9-0.5,1.4-0.6c0.5-0.2,1.1-0.3,1.7-0.3
		c0.9,0,1.9,0.2,2.7,0.6c0.7,0.3,1.3,0.8,1.9,1.4c0.5,0.6,0.9,1.3,1.1,2.1c0.2,0.8,0.3,1.6,0.3,2.4v9.8c0,0.2-0.2,0.4-0.4,0.4h-3.3
		c-0.2,0-0.4-0.2-0.4-0.4v-8.5c0-0.5,0-0.9-0.1-1.4c-0.1-0.5-0.2-1-0.4-1.4c-0.2-0.4-0.5-0.8-0.9-1c-0.5-0.3-1-0.4-1.6-0.4
		c-0.6,0-1.2,0.1-1.7,0.4c-0.5,0.2-0.9,0.6-1.2,1c-0.3,0.4-0.6,0.9-0.7,1.4c-0.2,0.5-0.2,1-0.2,1.6v8.4c0,0.2-0.2,0.4-0.4,0.4h-3.3
		c-0.2,0-0.4-0.2-0.4-0.4V113.3z M115.3,190.4l-3.7-4.2v4.2h-1.3v-9.6h1.3v4.3l3.5-4.2h1.6l-3.9,4.7l4.2,4.9L115.3,190.4z
		 M123.2,187.3l-4.4-0.1c-0.1,1.1,0.7,2.2,1.8,2.3h0.4c0.6,0,1.2-0.2,1.7-0.5l0.4,0.9c-0.7,0.5-1.5,0.7-2.3,0.7
		c-1.8,0-3.3-1.5-3.3-3.3c0-0.1,0-0.3,0-0.4c-0.2-1.7,1-3.3,2.7-3.5c0,0,0,0,0,0h0.2c1.8,0,2.8,1.4,2.8,3.6V187.3z M130.2,187.3
		l-4.4-0.1c-0.1,1.1,0.7,2.2,1.8,2.3h0.3c0.6,0,1.2-0.2,1.7-0.5l0.4,0.9c-0.7,0.5-1.5,0.7-2.3,0.7c-1.8,0-3.3-1.5-3.3-3.3
		c0-0.1,0-0.3,0-0.4c-0.2-1.7,1-3.3,2.7-3.5c0,0,0,0,0,0h0.2c1.8,0,2.8,1.4,2.8,3.6V187.3z M140.9,190.4l-1.3,0v-6.9h1.3V190.4z
		 M140.3,182.2c-0.5,0-0.8-0.4-0.8-0.9c0-0.5,0.4-0.8,0.9-0.8c0.5,0,0.8,0.4,0.8,0.8C141.1,181.8,140.7,182.2,140.3,182.2z
		 M165.3,183.5l-0.4,1h-1.4v5.8h-1.2v-5.8h-0.9v-1h0.9v-1.1c-0.1-1.1,0.6-2.1,1.8-2.3h0.4c0.4,0,0.8,0.1,1.1,0.3l-0.3,1
		c-0.3-0.1-0.6-0.2-0.8-0.2c-0.6,0-0.9,0.4-0.9,1.1v1.3H165.3z M183.4,185.6v4.8l-1.3,0V186c0-0.9-0.2-1.5-1.1-1.5
		c-0.8,0.1-1.5,0.4-2,0.9c0,0.1,0,0.2,0,0.4v4.6h-1.3V186c0-0.9-0.2-1.5-1.1-1.5c-0.8,0.1-1.5,0.4-2,1v5h-1.3v-6.9h1.1l0.2,0.8
		c0.7-0.6,1.5-0.9,2.4-1c0.8,0,1.5,0.4,1.7,1.1c0.7-0.7,1.6-1.1,2.5-1.1c1.1-0.1,2,0.7,2.1,1.8C183.4,185.3,183.4,185.4,183.4,185.6
		z M172.7,163.6c0.2,0.6,0.5,1.2,0.9,1.7c0.4,0.5,0.9,0.9,1.4,1.2c0.6,0.3,1.3,0.5,2,0.5c0.6,0,1.3-0.1,1.9-0.4
		c0.5-0.2,0.9-0.5,1.3-0.8c0.1-0.1,0.4-0.1,0.5,0c0,0,0,0,0,0l2,2c0.1,0.1,0.1,0.4,0,0.5c-0.7,0.6-1.4,1.1-2.3,1.4
		c-1.1,0.4-2.2,0.6-3.4,0.6c-1.2,0-2.3-0.2-3.4-0.5c-2.1-0.7-3.8-2.3-4.7-4.4c-0.5-1.1-0.7-2.4-0.7-3.6c0-1.2,0.2-2.4,0.7-3.5
		c0.4-1,1.1-1.9,1.9-2.7c0.8-0.7,1.7-1.3,2.7-1.7c2.2-0.8,4.6-0.8,6.8,0c0.9,0.3,1.7,0.9,2.4,1.6c0.1,0.1,0.1,0.4,0,0.5l-2.1,1.9
		c-0.1,0.1-0.4,0.1-0.5,0c0,0,0,0,0,0c-0.3-0.4-0.7-0.6-1.2-0.8c-0.6-0.3-1.2-0.4-1.9-0.5c-0.7,0-1.4,0.1-2,0.5
		c-0.6,0.3-1,0.7-1.4,1.2c-0.4,0.5-0.6,1.1-0.8,1.6c-0.2,0.6-0.3,1.2-0.3,1.9C172.4,162.3,172.5,163,172.7,163.6z M186.8,190.4
		l-1.3,0v-6.9h1.3V190.4z M186.1,182.2c-0.5,0-0.8-0.4-0.8-0.9c0-0.5,0.4-0.8,0.9-0.8c0.5,0,0.8,0.4,0.8,0.8
		C187,181.8,186.6,182.2,186.1,182.2z M190.3,190.6c-0.7,0.1-1.3-0.4-1.3-1.1c0-0.1,0-0.2,0-0.3v-9.1h1.3v8.5c0,0.6,0.1,0.8,0.5,0.8
		c0.1,0,0.3,0,0.4,0l0.2,0.9C191,190.5,190.7,190.6,190.3,190.6z M194.1,190.4l-1.3,0v-6.9h1.3V190.4z M193.4,182.2
		c-0.5,0-0.8-0.4-0.8-0.9c0-0.5,0.4-0.8,0.9-0.8c0.5,0,0.8,0.4,0.8,0.8C194.3,181.8,193.9,182.2,193.4,182.2z M201.7,187.3l-4.4,0
		c-0.1,1.2,0.8,2.2,1.9,2.2h0.2c0.6,0,1.2-0.2,1.7-0.5l0.4,0.9c-0.7,0.5-1.5,0.7-2.3,0.7c-1.8,0-3.3-1.5-3.3-3.3c0-0.1,0-0.3,0-0.4
		c-0.2-1.7,1-3.3,2.7-3.5c0,0,0,0,0,0h0.2c1.8,0,2.8,1.4,2.8,3.6V187.3z M204.9,190.6c-0.8,0-1.6-0.2-2.2-0.6l0.5-1
		c0.5,0.3,1.1,0.5,1.7,0.5c0.8,0,1.4-0.4,1.4-0.9c0-1.5-3.2-1-3.2-3.4c0-1,0.8-1.9,2.4-1.9c0.6,0,1.2,0.1,1.8,0.4v1.1
		c-0.6-0.3-1.2-0.4-1.8-0.4c-0.7,0-1.2,0.2-1.2,0.8c0,1.4,3.2,1,3.2,3.3C207.6,190,206.3,190.6,204.9,190.6z M212.1,157
		c-0.2-0.1-0.5-0.1-0.7-0.1h-0.6c-0.8,0-1.5,0.1-2.2,0.5c-0.5,0.3-1,0.7-1.3,1.2c-0.3,0.4-0.5,0.9-0.6,1.4c-0.1,0.4-0.2,0.8-0.2,1.2
		v8.3c0,0.2-0.2,0.4-0.4,0.4h-3.3c-0.2,0-0.4-0.2-0.4-0.4V154c0-0.2,0.1-0.4,0.3-0.4h3.2c0.2,0,0.4,0.2,0.4,0.4v2.3
		c0.4-0.9,1.1-1.7,1.9-2.3c0.8-0.6,1.8-0.9,2.8-0.9h0.6c0.2,0,0.3,0,0.5,0.1V157z M223.4,189.7c-1.3,1.2-3.2,1.2-4.5,0
		c-1.3-1.6-1.3-3.9,0-5.5c1.3-1.2,3.3-1.2,4.6,0l0,0.1C224.7,185.8,224.7,188.1,223.4,189.7z M228.4,193.9c-2.1,0-3.3-0.9-3.3-2.1
		c0.1-0.8,0.6-1.4,1.3-1.7c-0.3-0.2-0.5-0.5-0.5-0.9c0.1-0.5,0.4-1,0.8-1.3c-0.7-0.4-1.2-1.2-1.1-2.1c0-1.4,1.1-2.5,2.5-2.5
		c0,0,0,0,0,0h0.1c0.4,0,0.9,0.1,1.3,0.3c0,0,0.1,0,0.2,0c0.6-0.5,1.3-0.7,2-0.5l-0.3,1.1c-0.3-0.1-0.7-0.1-1,0
		c0.5,0.5,0.8,1.1,0.8,1.8c-0.2,1.6-1.6,2.7-3.1,2.5c-0.2,0-0.3-0.1-0.5-0.1c-0.2,0.2-0.3,0.5-0.3,0.7c0,1,4.8,0,4.8,2.6
		C231.9,192.8,230.9,193.9,228.4,193.9z M238.1,187.3l-4.2,0c-0.1,1.1,0.8,2.1,1.9,2.2h0.2c0.6,0,1.2-0.2,1.7-0.5l0.4,0.9
		c-0.7,0.5-1.5,0.7-2.3,0.7c-1.8,0-3.3-1.5-3.3-3.3c0-0.1,0-0.3,0-0.4c-0.2-1.7,1-3.3,2.7-3.5c0,0,0,0,0,0c1.8,0,2.8,1.4,2.8,3.6
		V187.3z M241.9,190.6c-0.8,0.1-1.5-0.5-1.6-1.3c0-0.1,0-0.2,0-0.3v-4.5h-1.1v-1h1.1V182l1.3-0.4v2h2.1l-0.4,1h-1.7v4.1
		c0,0.6,0.2,0.8,0.7,0.8c0.4,0,0.9-0.2,1.2-0.5l0.4,0.9C243.3,190.3,242.6,190.5,241.9,190.6z M250.9,190.4l-1.3,0v-4.2
		c0-0.8-0.1-1.7-1.2-1.7c-0.7,0.1-1.4,0.4-2,1v4.9h-1.3v-10.3h1.3v4.2c0.7-0.6,1.5-0.9,2.4-1c1,0,2.1,0.6,2.1,2.5V190.4z
		 M258.3,187.3l-4.4,0c-0.1,1.2,0.8,2.2,1.9,2.2h0.2c0.6,0,1.2-0.2,1.7-0.5l0.4,0.9c-0.7,0.5-1.5,0.7-2.3,0.7
		c-1.8,0-3.3-1.5-3.3-3.3c0-0.1,0-0.3,0-0.4c-0.2-1.7,1-3.3,2.7-3.5c0,0,0,0,0,0h0.2c1.8,0,2.8,1.4,2.8,3.6V187.3z M263.4,184.8
		c-0.2-0.1-0.5-0.2-0.7-0.2c-0.5,0.1-1,0.4-1.4,0.8v5.1H260v-6.9h1.1l0.2,0.8c0.5-0.6,1.2-0.9,1.9-0.9c0.3,0,0.6,0.1,0.8,0.2
		L263.4,184.8z M263.9,169.6c-0.1,0.1-0.2,0.1-0.3,0.1h-4.9c-0.1,0-0.2,0-0.3-0.1l-10.3-11.8H248v11.6c0,0.2-0.2,0.4-0.4,0.4h-3.5
		c-0.2,0-0.4-0.2-0.4-0.4v-23c0-0.2,0.2-0.4,0.4-0.4h3.5c0.2,0,0.4,0.2,0.4,0.4v9.9h0.1l9.8-10.2c0.1-0.1,0.2-0.1,0.3-0.1h4.6
		c0.2,0,0.4,0.2,0.4,0.4c0,0.1,0,0.2-0.1,0.3l-10.2,10.1c-0.1,0.1-0.1,0.4,0,0.5l11,11.9C264,169.3,264,169.5,263.9,169.6z
		 M271.1,137.9c0,0.2-0.2,0.4-0.4,0.4h-3.3c-0.2,0-0.4-0.2-0.4-0.4v-15.4c0-0.2,0.2-0.4,0.4-0.4h3.3c0.2,0,0.4,0.2,0.4,0.4V137.9z
		 M272.4,122.5c0-0.2,0.2-0.4,0.4-0.4h2.1c0.2,0,0.4-0.2,0.4-0.4v-3.9c0-0.2,0.2-0.4,0.4-0.4h3.2c0.2,0,0.4,0.2,0.4,0.4v3.9
		c0,0.2,0.2,0.4,0.4,0.4h3.3c0.2,0,0.4,0.2,0.4,0.4v2.5c0,0.2-0.2,0.4-0.4,0.4h-3.3c-0.2,0-0.4,0.2-0.4,0.4v7.1
		c0,0.6,0.1,1.2,0.4,1.8c0.3,0.5,0.8,0.7,1.7,0.7c0.3,0,0.6,0,0.9-0.1c0.3,0,0.6-0.1,0.8-0.3l0.1,2.8c0,0.2-0.1,0.3-0.3,0.4
		c-0.3,0.1-0.7,0.2-1,0.2c-0.5,0.1-0.9,0.1-1.4,0.1c-0.9,0-1.8-0.1-2.6-0.5c-0.6-0.3-1.2-0.7-1.6-1.2c-0.4-0.5-0.7-1.2-0.8-1.8
		c-0.1-0.7-0.2-1.5-0.2-2.2v-7.1c0-0.2-0.2-0.4-0.4-0.4h-2.1c-0.2,0-0.4-0.2-0.4-0.4h0V122.5z M267.1,115c0.5-0.5,1.1-0.7,1.8-0.7
		c0.7,0,1.4,0.2,1.9,0.7c1,0.9,1,2.4,0.1,3.3l-0.1,0.1c-0.5,0.5-1.2,0.7-1.9,0.7c-0.7,0-1.3-0.2-1.8-0.7c-0.5-0.4-0.7-1.1-0.7-1.7
		C266.4,116,266.7,115.4,267.1,115z M239.3,122.2L239.3,122.2l3.6,0c0.2,0,0.3,0.1,0.4,0.3l3.3,11.3l3.4-11.3c0-0.2,0.2-0.3,0.4-0.3
		h3.8c0.2,0,0.3,0.1,0.4,0.3l3.4,11.3l3.3-11.3c0-0.2,0.2-0.3,0.4-0.3h3.4c0.2,0,0.4,0.2,0.4,0.4c0,0,0,0.1,0,0.1l-5.3,15.4
		c-0.1,0.2-0.2,0.3-0.4,0.3h-3.6c-0.2,0-0.3-0.1-0.4-0.3l-3.5-11l-3.5,11c0,0.2-0.2,0.3-0.4,0.3h-3.6c-0.2,0-0.3-0.1-0.4-0.3
		l-5.4-15.4C239,122.5,239.1,122.2,239.3,122.2z M234.5,164.7c0.4-0.5,0.7-1.2,0.9-1.8c0.2-0.7,0.3-1.4,0.3-2.1v-14.5
		c0-0.2,0.2-0.4,0.4-0.4h3.5c0.2,0,0.4,0.2,0.4,0.4l0,14.7c0,1.3-0.2,2.6-0.7,3.9c-0.5,1.1-1.1,2.1-2,2.9c-0.9,0.8-1.9,1.5-3,1.9
		c-2.5,0.9-5.1,0.9-7.6,0c-1.1-0.4-2.2-1-3-1.9c-0.9-0.8-1.6-1.8-2-2.9c-0.5-1.2-0.7-2.6-0.7-3.9v-14.7c0-0.2,0.2-0.4,0.4-0.4h3.5
		c0.2,0,0.4,0.2,0.4,0.4v14.5c0,0.7,0.1,1.4,0.3,2.1c0.2,0.7,0.5,1.3,0.9,1.8c0.4,0.6,1,1,1.6,1.3c1.6,0.7,3.4,0.7,5.1,0
		C233.5,165.7,234.1,165.3,234.5,164.7z M215.6,122.5c0-0.2,0.2-0.4,0.4-0.4h3c0.2,0,0.4,0.2,0.4,0.4v2.2c0.4-0.9,1.1-1.6,1.9-2.1
		c0.9-0.7,2-1,3.2-1c0.9,0,1.9,0.2,2.7,0.6c0.7,0.3,1.3,0.8,1.9,1.4c0.5,0.6,0.8,1.3,1.1,2.1c0.2,0.8,0.3,1.6,0.3,2.4v9.8
		c0,0.2-0.2,0.4-0.4,0.4h-3.2c-0.2,0-0.4-0.2-0.4-0.4v-8.5c0-0.5,0-0.9-0.1-1.4c-0.1-0.5-0.2-1-0.4-1.4c-0.2-0.4-0.5-0.8-0.9-1
		c-0.5-0.3-1-0.4-1.6-0.4c-0.6,0-1.2,0.1-1.7,0.4c-0.5,0.2-0.8,0.6-1.2,1c-0.3,0.4-0.5,0.9-0.7,1.4c-0.2,0.5-0.2,1.1-0.2,1.6v8.5
		c0,0.2-0.2,0.4-0.4,0.4H216c-0.2,0-0.4-0.2-0.4-0.4V122.5z M213.4,182l1.3-0.4v2h2.2l-0.4,1h-1.7v4.1c0,0.6,0.2,0.8,0.7,0.8
		c0.4,0,0.9-0.2,1.2-0.5l0.4,0.9c-0.6,0.4-1.3,0.7-2,0.7c-0.8,0.1-1.5-0.5-1.6-1.3c0-0.1,0-0.2,0-0.3v-4.5h-1.1v-1h1.1V182z
		 M201.6,122.3c1.1-0.5,2.2-0.7,3.4-0.7c1.1,0,2.1,0.2,3.1,0.6c0.9,0.4,1.8,0.9,2.5,1.6c0.7,0.8,1.3,1.7,1.6,2.7
		c0.4,1.3,0.6,2.6,0.6,3.9v0.5c0,0.2,0,0.4,0,0.5H201c-0.2,0-0.4,0.2-0.4,0.4c0,0,0,0.1,0,0.1c0.1,0.4,0.2,0.8,0.4,1.1
		c0.3,0.5,0.6,0.9,1,1.2c0.4,0.3,0.9,0.6,1.4,0.8c0.5,0.2,1.1,0.3,1.7,0.3c0.9,0,1.8-0.2,2.5-0.6c0.5-0.3,1-0.7,1.4-1.2
		c0.1-0.1,0.4-0.1,0.5,0l2.1,1.7c0.1,0.1,0.1,0.4,0,0.5c-1.6,2-4.1,3.1-6.7,2.9c-1.2,0-2.3-0.2-3.5-0.6c-1-0.4-1.9-1-2.6-1.7
		c-0.8-0.7-1.4-1.6-1.9-2.6c-0.5-1.1-0.7-2.3-0.7-3.5c0-1.2,0.2-2.4,0.7-3.5C197.9,124.7,199.5,123.1,201.6,122.3z M186.9,122.5
		c0-0.2,0.2-0.4,0.4-0.4h0h3.1c0.2,0,0.4,0.2,0.4,0.4v2.3c0.4-0.9,1.1-1.7,1.9-2.3c0.8-0.6,1.8-0.9,2.8-0.9h0.6c0.2,0,0.3,0,0.5,0.1
		v3.7c-0.2-0.1-0.5-0.1-0.7-0.1h-0.6c-0.8,0-1.5,0.1-2.2,0.5c-0.5,0.3-1,0.7-1.3,1.2c-0.3,0.4-0.5,0.9-0.6,1.4
		c-0.1,0.4-0.2,0.8-0.2,1.2v8.3c0,0.2-0.2,0.4-0.4,0.4h-3.3c-0.2,0-0.4-0.2-0.4-0.4V122.5z M188.4,153.8c1.1-0.4,2.2-0.6,3.4-0.6
		c1.1,0,2.1,0.2,3.1,0.6c1,0.3,1.9,0.8,2.6,1.6c0.7,0.8,1.3,1.7,1.6,2.7c0.4,1.2,0.6,2.5,0.6,3.8v0.5c0,0.2,0,0.4,0,0.5h-11.9
		c-0.2,0-0.4,0.2-0.4,0.4c0,0,0,0.1,0,0.1c0.1,0.4,0.2,0.8,0.4,1.1c0.3,0.5,0.6,0.9,1,1.2c0.4,0.3,0.9,0.6,1.4,0.8
		c0.5,0.2,1.1,0.3,1.7,0.3c0.9,0,1.8-0.2,2.5-0.6c0.5-0.3,1-0.7,1.4-1.2c0.1-0.1,0.4-0.1,0.5,0l2.1,1.7c0.1,0.1,0.1,0.4,0,0.5
		c-1.6,2-4.1,3.1-6.7,2.9c-1.2,0-2.3-0.2-3.5-0.6c-1-0.4-1.9-0.9-2.7-1.7c-0.8-0.7-1.4-1.6-1.8-2.6c-0.5-1.1-0.7-2.3-0.7-3.5
		c0-1.2,0.2-2.4,0.7-3.5C184.7,156.3,186.4,154.6,188.4,153.8z M166.5,126.8c0.4-1,0.9-1.9,1.6-2.7c1.5-1.6,3.5-2.5,5.7-2.4
		c1.2,0,2.4,0.3,3.5,0.9c0.4,0.2,0.8,0.5,1.1,0.8c0.3,0.3,0.5,0.5,0.8,0.8h0.1v-10.9c0-0.2,0.2-0.4,0.4-0.4h3.2
		c0.2,0,0.4,0.2,0.4,0.4v24.6c0,0.2-0.2,0.4-0.4,0.4h-3.1c-0.2,0-0.4-0.2-0.4-0.4v-2c-0.5,0.9-1.4,1.7-2.3,2.2
		c-1,0.5-2.1,0.7-3.2,0.7c-1.1,0-2.3-0.2-3.3-0.7c-0.9-0.4-1.8-1.1-2.5-1.9c-0.7-0.8-1.3-1.7-1.7-2.7c-0.3-1.1-0.5-2.2-0.5-3.4
		C165.9,129,166.1,127.8,166.5,126.8z M165.9,188.5c0-1.4,1-2.2,2.8-2.3h1.4v-0.3c0.1-0.7-0.4-1.3-1.1-1.4h-0.3
		c-0.7,0-1.3,0.2-1.8,0.6l-0.5-0.9c0.7-0.5,1.6-0.8,2.5-0.8c1.2-0.2,2.3,0.6,2.5,1.8c0,0.2,0,0.4,0,0.6v2.4c-0.1,0.8,0,1.6,0.1,2.4
		l-1.1-0.1l-0.3-0.7c-0.6,0.5-1.3,0.8-2.1,0.8c-1.1,0.1-2.1-0.8-2.2-2c0,0,0,0,0,0V188.5z M159.1,113.3c0-0.2,0.2-0.4,0.4-0.4h3.3
		c0.2,0,0.4,0.2,0.4,0.4v24.6c0,0.2-0.2,0.4-0.4,0.4h-3.3c-0.2,0-0.4-0.2-0.4-0.4V113.3z M156.5,154.1c0.9-0.6,2-0.9,3.1-0.9
		c0.9,0,1.9,0.2,2.7,0.6c0.7,0.3,1.3,0.8,1.9,1.4c0.5,0.6,0.8,1.3,1.1,2.1c0.2,0.8,0.3,1.6,0.3,2.4v9.7c0,0.2-0.2,0.4-0.4,0.4H162
		c-0.2,0-0.4-0.2-0.4-0.4v-8.5c0-0.5,0-0.9-0.1-1.4c-0.1-0.5-0.2-1-0.4-1.4c-0.2-0.4-0.5-0.8-0.9-1c-0.5-0.3-1-0.4-1.6-0.4
		c-0.6,0-1.2,0.2-1.7,0.4c-0.5,0.2-0.8,0.6-1.2,1c-0.3,0.4-0.5,0.9-0.7,1.4c-0.2,0.5-0.2,1.1-0.2,1.6v8.5c0,0.2-0.2,0.4-0.4,0.4
		h-3.3c-0.2,0-0.4-0.2-0.4-0.4V154c0-0.2,0.2-0.4,0.4-0.4h3.1c0.2,0,0.4,0.2,0.4,0.4v2.2C155,155.3,155.7,154.6,156.5,154.1z
		 M151.2,137.9v-15.4c0-0.2,0.2-0.4,0.4-0.4h3.3c0.2,0,0.4,0.2,0.4,0.4v15.4c0,0.2-0.2,0.4-0.4,0.4h-3.3
		C151.4,138.3,151.2,138.1,151.2,137.9z M151.4,115c0.5-0.5,1.1-0.7,1.8-0.7c0.7,0,1.4,0.2,1.9,0.7c1,0.9,1,2.4,0.1,3.3l-0.1,0.1
		c-0.5,0.5-1.2,0.7-1.9,0.7c-0.7,0-1.3-0.2-1.8-0.7c-0.4-0.4-0.7-1.1-0.7-1.7C150.7,116,150.9,115.4,151.4,115z M151.4,190.1
		c-0.3-0.2-0.5-0.5-0.5-0.9c0.1-0.5,0.4-1,0.8-1.3c-0.7-0.4-1.2-1.2-1.1-2.1c0-1.4,1.1-2.5,2.5-2.5c0,0,0,0,0,0
		c0.4,0,0.9,0.1,1.3,0.3c0,0,0.1,0,0.2,0c0.6-0.5,1.3-0.7,2-0.5l-0.3,1.1c-0.3-0.1-0.7-0.1-1,0c0.5,0.5,0.8,1.1,0.8,1.8
		c-0.2,1.6-1.6,2.7-3.1,2.5c-0.2,0-0.3-0.1-0.5-0.1c-0.2,0.2-0.3,0.5-0.3,0.7c0,1,4.8,0,4.8,2.6c0.1,1.1-1,2.2-3.5,2.2
		c-2.1,0-3.3-0.9-3.3-2.1C150.1,191.1,150.6,190.4,151.4,190.1z M148.8,185.8v4.6h-1.3v-4.2c0-0.8-0.1-1.7-1.1-1.7
		c-0.8,0.1-1.5,0.4-2,1v4.9h-1.3v-6.9h1.1l0.2,0.8c0.7-0.6,1.5-0.9,2.4-1C147.8,183.4,148.8,184,148.8,185.8z M132.8,113.3
		c0-0.2,0.2-0.4,0.4-0.4h3.3c0.2,0,0.4,0.2,0.4,0.4v11.2c0.2-0.4,0.4-0.7,0.7-1c0.3-0.3,0.7-0.6,1.1-0.9c0.4-0.3,0.9-0.5,1.4-0.6
		c0.5-0.2,1.1-0.3,1.7-0.3c0.9,0,1.9,0.2,2.7,0.6c0.7,0.3,1.3,0.8,1.9,1.4c0.5,0.6,0.8,1.3,1.1,2.1c0.2,0.8,0.3,1.6,0.3,2.4v9.8
		c0,0.2-0.2,0.4-0.4,0.4H144c-0.2,0-0.4-0.2-0.4-0.4v-8.5c0-0.5,0-0.9-0.1-1.4c-0.1-0.5-0.2-1-0.4-1.4c-0.2-0.4-0.5-0.8-0.9-1
		c-0.5-0.3-1-0.4-1.6-0.4c-0.6,0-1.2,0.1-1.7,0.4c-0.5,0.2-0.9,0.6-1.2,1c-0.3,0.4-0.6,0.9-0.7,1.4c-0.2,0.5-0.2,1-0.2,1.6v8.4
		c0,0.2-0.2,0.4-0.4,0.4h-3.3c-0.2,0-0.4-0.2-0.4-0.4V113.3z M133.4,162.3c0.7-0.7,1.6-1.3,2.6-1.6c1.1-0.4,2.3-0.7,3.5-0.8
		c1.3-0.1,2.6-0.2,3.9-0.2v-0.4c0.1-0.9-0.4-1.8-1.1-2.3c-0.8-0.5-1.7-0.7-2.6-0.7c-0.8,0-1.7,0.2-2.4,0.5c-0.6,0.3-1.2,0.6-1.7,1
		c-0.1,0.1-0.4,0.1-0.5,0l-1.6-1.9c-0.1-0.1-0.1-0.4,0-0.5c0.8-0.7,1.8-1.3,2.8-1.7c1.2-0.4,2.4-0.6,3.6-0.6c1.2,0,2.4,0.2,3.5,0.6
		c0.8,0.3,1.6,0.9,2.2,1.6c0.5,0.6,0.9,1.4,1.1,2.2c0.2,0.8,0.3,1.6,0.3,2.4v9.4c0,0.2-0.2,0.4-0.4,0.4h-2.8c-0.2,0-0.4-0.2-0.4-0.4
		l0-1.7h-0.1c-0.5,0.8-1.1,1.4-2,1.8c-0.9,0.5-2,0.7-3.1,0.7c-0.7,0-1.4-0.1-2-0.3c-0.7-0.2-1.4-0.4-2-0.8c-0.6-0.4-1.1-0.9-1.4-1.5
		c-0.4-0.7-0.6-1.5-0.6-2.4C132.4,164.1,132.7,163.1,133.4,162.3z M131.9,183.8c0.8-0.3,1.6-0.5,2.4-0.5c1.8-0.2,3.4,1.2,3.5,3
		c0,0.2,0,0.4,0,0.6c0.1,1.9-1.4,3.6-3.3,3.7h-0.3c-0.4,0-0.8-0.1-1.1-0.2v3.5h-1.3V183.8z M131.3,166.5c-1,1.2-2.2,2.1-3.6,2.8
		c-1.7,0.8-3.5,1.1-5.3,1.1c-1.8,0-3.5-0.3-5.1-0.9c-3-1.2-5.4-3.5-6.6-6.6c-0.6-1.6-1-3.4-0.9-5.1c0-1.8,0.3-3.5,1-5.2
		c0.6-1.5,1.5-2.8,2.7-3.9c1.2-1.1,2.6-1.9,4.1-2.5c1.6-0.6,3.4-0.9,5.1-0.8c0.8,0,1.6,0.1,2.4,0.2c0.8,0.1,1.6,0.4,2.4,0.7
		c0.8,0.3,1.5,0.7,2.2,1.1c0.5,0.4,1,0.8,1.4,1.3c0.1,0.1,0.1,0.4,0,0.5l-2.7,2.2c-0.1,0.1-0.3,0.1-0.5,0c-0.6-0.7-1.4-1.2-2.2-1.6
		c-2-0.8-4.3-0.7-6.3,0.2c-1,0.4-1.9,1.1-2.6,1.9c-0.7,0.8-1.3,1.7-1.7,2.8c-0.4,1.1-0.6,2.3-0.6,3.4c0,1.2,0.2,2.4,0.6,3.6
		c0.3,1,0.9,2,1.6,2.8c0.7,0.8,1.6,1.4,2.5,1.8c1.1,0.4,2.2,0.7,3.3,0.6c1.2,0,2.3-0.2,3.4-0.8c0.8-0.5,1.6-1.2,2.1-2
		c0.1-0.2,0.3-0.2,0.5-0.1l2.8,1.9C131.4,166.1,131.4,166.3,131.3,166.5z M110.6,121.3c0.6-1.5,1.5-2.8,2.7-3.9
		c1.2-1.1,2.6-1.9,4.1-2.5c1.6-0.6,3.4-1,5.1-1c0.8,0,1.6,0.1,2.4,0.2c0.8,0.1,1.6,0.4,2.4,0.7c0.8,0.3,1.5,0.7,2.2,1.1
		c0.5,0.4,1,0.8,1.4,1.3c0.1,0.1,0.1,0.4,0,0.5l-2.7,2.1c-0.1,0.1-0.4,0.1-0.5,0c-0.6-0.7-1.4-1.2-2.2-1.6c-2-0.8-4.3-0.8-6.3,0.1
		c-1,0.4-1.8,1.1-2.6,1.9c-0.7,0.8-1.3,1.7-1.7,2.7c-0.4,1.1-0.6,2.3-0.6,3.4c0,1.2,0.2,2.4,0.6,3.6c0.3,1,0.9,2,1.6,2.8
		c0.7,0.8,1.6,1.4,2.5,1.8c1.1,0.4,2.2,0.7,3.3,0.6c1.2,0,2.3-0.2,3.4-0.8c0.8-0.4,1.6-1,2.2-1.7c0.1-0.1,0.4-0.1,0.5,0l2.8,1.9
		c0.2,0.1,0.2,0.4,0.1,0.5c-1,1.2-2.2,2.1-3.5,2.8c-1.7,0.8-3.5,1.1-5.3,1.1c-1.8,0-3.5-0.3-5.1-0.9c-3.1-1.1-5.6-3.5-6.8-6.6
		c-0.6-1.6-1-3.4-0.9-5.1C109.6,124.6,109.9,122.9,110.6,121.3z"/>
	<path class="st0" d="M153.5,192.9c1.3,0,2-0.4,2-1.1c-0.1-1.1-2.5-1-3.3-1.3c-0.5,0.2-0.8,0.6-0.8,1.1
		C151.4,192.3,152.2,192.9,153.5,192.9z"/>
	<path class="st0" d="M168.4,189.5C168.4,189.5,168.4,189.5,168.4,189.5l0.2,0c0.6,0,1.2-0.2,1.6-0.7v-1.6h-1.3
		c-1.1,0-1.6,0.4-1.6,1.1C167.3,188.9,167.8,189.4,168.4,189.5z"/>
	<path class="st0" d="M352.6,146.7c0.5,0.4,0.8,1,1,1.6c0.3,0.9,0.1,1.9-0.6,2.8c0,1.4-0.3,3.1-0.9,5.5c-0.1,0.4-0.4,0.7-0.8,0.7
		h-0.2c0,0,0,0,0,0c-0.5-0.1-0.7-0.6-0.6-1c0.3-1.3,0.5-2.3,0.6-3.2c-0.1,0.1-0.2,0.1-0.3,0.2c-0.2,0.4-0.4,0.7-0.6,1.1
		c-1.6,2.7-3.6,5.2-6,7.2c0,0,0,0,0,0l0.8,0.5c0.6,0.3,1.2,0.3,1.8,0l19.4-11.2c0.6-0.3,0.9-0.9,0.9-1.6v-22.4
		c0-0.6-0.3-1.2-0.9-1.6L348.5,115c0,1.2-0.9,2.2-2,2.4c1.6,0.6,2.9,1.8,3.7,3.3c0.3,0.6-0.2,6.4-0.2,7.7c0.1,1.6,0.6,3.2,1.5,4.5
		c0.4,0.8,0.6,1.6,0.7,2.5c-0.4,0.1-0.9,0.1-1.3,0.1c-0.1,1-0.8,1.8-1.7,2.1l0.1,1.7c0.2,0.2,0.3,0.4,0.3,0.6c0,2.1,0.6,4.1,1.8,5.9
		c0,0,0,0,0-0.1C352,145.6,352.5,146.1,352.6,146.7z M364.7,135.1c0,0.6-0.5,1-1,1h-7.4c-0.6,0-1-0.5-1-1s0.5-1,1-1h7.4
		C364.3,134.1,364.7,134.6,364.7,135.1z M355.4,130.3l6.4-3.7l0.2-0.1c0.5-0.2,1.1,0,1.4,0.5c0.2,0.5,0,1.1-0.5,1.4l-6.4,3.7
		c-0.2,0.1-0.3,0.1-0.5,0.1c-0.4,0-0.7-0.2-0.9-0.5C354.7,131.2,354.9,130.6,355.4,130.3z M354.9,138.3c0.4-0.4,1-0.5,1.4-0.1
		l6.4,3.7l0.2,0.1l0.1,0.1c0.4,0.4,0.5,1,0.1,1.4c-0.4,0.4-1,0.5-1.4,0.1l-6.4-3.7l-0.2-0.1l-0.1-0.1
		C354.6,139.4,354.6,138.7,354.9,138.3z"/>
	<path class="st0" d="M426.8,39.5h-33.3V204c0,2.5-1.3,4.7-3.4,6l-1.4,0.8h-63.8v6.6c0,1-0.8,1.7-1.7,1.7c-1,0-1.7-0.8-1.7-1.7v-6.6
		H84.2l-1.3-0.8c-2.1-1.2-3.4-3.5-3.4-6V39.5H38.5v164.6c0,2.3,0.2,4.5,0.5,6.7c2.1,14.4,10.6,27.2,23.4,34.7l150.2,86.7
		c2,1.2,3.3,3.3,3.4,5.7v87.3c0,11.3,9.2,20.4,20.5,20.5l0,0c11.3,0,20.4-9.2,20.5-20.5v-87.2c0.1-2.3,1.4-4.5,3.4-5.7l150.3-86.7
		c14.7-8.6,23.8-24.3,23.9-41.4V39.5H426.8z M427.4,204.1c0,14.5-7.8,28-20.4,35.3l-150.3,86.7c-4.2,2.4-6.8,6.8-6.9,11.7v87.4
		c0,7.4-6,13.4-13.4,13.4c-7.4,0-13.4-6-13.4-13.4v-87.4c-0.1-4.8-2.8-9.2-6.9-11.7L65.9,239.3C53.4,232,45.6,218.6,45.6,204V46.6
		h26.8V204c0,5,2.7,9.6,7,12.1l150.2,86.7c4.3,2.5,9.6,2.5,13.9,0l150.2-86.7c4.3-2.5,7-7.1,7-12.1V46.6h26.8V204.1z"/>
	<polygon class="st1" points="116.6,180.9 115,180.9 111.6,185.1 111.6,180.8 110.3,180.8 110.3,190.4 111.6,190.4 111.6,186.2 
		115.3,190.4 117,190.4 112.7,185.5 	"/>
	<path class="st1" d="M120.4,183.4h-0.2c0,0,0,0,0,0c-1.7,0.2-3,1.8-2.7,3.5c0,0.1,0,0.3,0,0.4c0,1.8,1.5,3.3,3.3,3.3
		c0.8,0,1.6-0.3,2.3-0.7l-0.4-0.9c-0.5,0.3-1.1,0.5-1.7,0.5h-0.4c-1.1-0.2-1.9-1.2-1.8-2.3l4.4,0.1V187
		C123.2,184.9,122.2,183.4,120.4,183.4z M118.8,186.2c-0.1-0.9,0.6-1.7,1.6-1.8v-0.1h0.1c0.9,0.1,1.5,0.9,1.4,1.8H118.8z"/>
	<path class="st1" d="M127.4,183.4h-0.2c0,0,0,0,0,0c-1.7,0.2-3,1.8-2.7,3.5c0,0.1,0,0.3,0,0.4c0,1.8,1.5,3.3,3.3,3.3
		c0.8,0,1.6-0.3,2.3-0.7l-0.4-0.9c-0.5,0.3-1.1,0.5-1.7,0.5h-0.3c-1.1-0.1-2-1.2-1.8-2.3l4.4,0.1V187
		C130.2,184.9,129.2,183.4,127.4,183.4z M125.9,186.2c-0.1-0.9,0.6-1.7,1.6-1.8l0.1-0.1c0.9,0.1,1.5,0.9,1.4,1.8H125.9z"/>
	<path class="st1" d="M133.2,190.4c0.4,0.1,0.7,0.2,1.1,0.2h0.3c1.9-0.1,3.4-1.8,3.3-3.7c0-0.2,0-0.4,0-0.6c-0.2-1.8-1.7-3.1-3.5-3
		c-0.8,0-1.6,0.2-2.4,0.5v10.1h1.3V190.4z M133.2,184.6c0.3-0.1,0.7-0.2,1.1-0.2v0h0.4c1.2,0.2,2,1.3,1.9,2.4c0,1.6-0.8,2.6-2.3,2.6
		c-0.4,0-0.7-0.1-1-0.2V184.6z"/>
	<polygon class="st1" points="139.6,190.4 140.9,190.4 140.9,183.5 139.6,183.5 	"/>
	<path class="st1" d="M140.3,180.5c-0.5,0-0.9,0.4-0.9,0.8c0,0.5,0.4,0.9,0.8,0.9c0.5,0,0.9-0.4,0.9-0.9
		C141.1,180.9,140.8,180.5,140.3,180.5z"/>
	<path class="st1" d="M144.3,184.3l-0.2-0.8h-1.1v6.9h1.3v-4.9c0.5-0.5,1.2-0.9,2-1c1,0,1.1,0.9,1.1,1.7v4.2h1.3v-4.6
		c0-1.8-1-2.4-2-2.4C145.9,183.4,145,183.7,144.3,184.3z"/>
	<path class="st1" d="M153.3,193.9c2.5,0,3.6-1.1,3.5-2.2c0-2.6-4.8-1.6-4.8-2.6c0-0.3,0.1-0.5,0.3-0.7c0.2,0.1,0.3,0.1,0.5,0.1
		c1.6,0.2,3-0.9,3.1-2.5c0-0.7-0.3-1.3-0.8-1.8c0.3-0.1,0.7-0.1,1,0l0.3-1.1c-0.7-0.1-1.4,0-2,0.5c0,0-0.1,0-0.2,0
		c-0.4-0.2-0.8-0.3-1.3-0.3c0,0,0,0,0,0c-1.4,0-2.5,1.1-2.5,2.5c0,0.9,0.4,1.7,1.1,2.1c-0.5,0.3-0.8,0.8-0.8,1.3
		c0,0.4,0.2,0.7,0.5,0.9c-0.7,0.3-1.2,0.9-1.3,1.7C150.1,192.9,151.3,193.9,153.3,193.9z M153.2,184.4h0.2c0,0,0,0,0,0
		c0.8,0,1.4,0.7,1.3,1.5v0.1c0,0.8-0.6,1.4-1.4,1.4h-0.1c-0.8-0.1-1.3-0.8-1.3-1.5l-0.1-0.1C151.8,185,152.4,184.4,153.2,184.4z
		 M152.2,190.5c0.8,0.3,3.2,0.1,3.3,1.3c0,0.7-0.7,1.1-2,1.1c-1.3,0-2.1-0.6-2.1-1.2C151.4,191.1,151.7,190.7,152.2,190.5z"/>
	<path class="st1" d="M164.4,181.2c0.3,0,0.6,0.1,0.8,0.2l0.3-1c-0.4-0.2-0.7-0.3-1.1-0.3H164c-1.1,0.1-1.9,1.2-1.8,2.3v1.1h-0.9v1
		h0.9v5.8h1.2v-5.8h1.4l0.4-1h-1.8v-1.3C163.5,181.6,163.8,181.2,164.4,181.2z"/>
	<path class="st1" d="M168.1,190.6c0.8,0,1.5-0.3,2.1-0.8l0.3,0.7l1.1,0.1c-0.2-0.8-0.2-1.6-0.1-2.4v-2.4c0-0.2,0-0.4,0-0.6
		c-0.2-1.2-1.3-2-2.5-1.8c-0.9,0-1.8,0.3-2.5,0.8l0.5,0.9c0.5-0.4,1.2-0.6,1.8-0.6h0.3c0.7,0.1,1.2,0.7,1.1,1.4v0.3h-1.4
		c-1.8,0.1-2.8,0.8-2.8,2.3v0.2c0,0,0,0,0,0C166,189.8,167,190.6,168.1,190.6z M168.9,187.2h1.3v1.6c-0.4,0.4-1,0.7-1.6,0.7h-0.2
		c0,0,0,0,0,0c-0.6,0-1.1-0.5-1.1-1.2C167.3,187.6,167.8,187.2,168.9,187.2z"/>
	<path class="st1" d="M181.2,183.4c-0.9,0.1-1.8,0.5-2.5,1.1c-0.3-0.7-1-1.2-1.7-1.1c-0.9,0-1.8,0.4-2.4,1l-0.2-0.8h-1.1v6.9h1.3v-5
		c0.5-0.6,1.2-0.9,2-1c0.9,0,1.1,0.7,1.1,1.5v4.4h1.3v-4.6c0-0.1,0-0.2,0-0.4c0.5-0.5,1.2-0.9,2-0.9c0.9,0,1.1,0.6,1.1,1.5v4.4
		l1.3,0v-4.8c0-0.2,0-0.3,0-0.5C183.3,184,182.3,183.2,181.2,183.4z"/>
	<path class="st1" d="M186.2,180.5c-0.5,0-0.9,0.4-0.9,0.8c0,0.5,0.4,0.9,0.8,0.9c0.5,0,0.9-0.4,0.9-0.9
		C187,180.9,186.6,180.5,186.2,180.5z"/>
	<polygon class="st1" points="185.5,190.4 186.8,190.4 186.8,183.5 185.5,183.5 	"/>
	<path class="st1" d="M190.8,189.4c-0.4,0-0.5-0.2-0.5-0.8v-8.5H189v9.1c0,0.1,0,0.2,0,0.3c0.1,0.7,0.7,1.2,1.3,1.1
		c0.4,0,0.7-0.1,1.1-0.3l-0.2-0.9C191.1,189.4,190.9,189.4,190.8,189.4z"/>
	<polygon class="st1" points="192.8,190.4 194.1,190.4 194.1,183.5 192.8,183.5 	"/>
	<path class="st1" d="M193.5,180.5c-0.5,0-0.9,0.4-0.9,0.8c0,0.5,0.4,0.9,0.8,0.9c0.5,0,0.9-0.4,0.9-0.9
		C194.3,180.9,193.9,180.5,193.5,180.5z"/>
	<path class="st1" d="M198.9,183.4h-0.2c0,0,0,0,0,0c-1.7,0.2-3,1.8-2.7,3.5c0,0.1,0,0.3,0,0.4c0,1.8,1.5,3.3,3.3,3.3
		c0.8,0,1.6-0.3,2.3-0.7l-0.4-0.9c-0.5,0.3-1.1,0.5-1.7,0.5h-0.2c-1.2-0.1-2-1.1-1.9-2.2l4.4,0v-0.3
		C201.7,184.8,200.7,183.4,198.9,183.4z M197.3,186.2c-0.1-0.9,0.6-1.7,1.6-1.8l0-0.1h0.1c0.9,0.1,1.5,0.9,1.4,1.8H197.3z"/>
	<path class="st1" d="M204.4,185.2c0-0.6,0.5-0.8,1.2-0.8c0.6,0,1.2,0.2,1.8,0.4v-1.1c-0.6-0.2-1.2-0.4-1.8-0.4
		c-1.6,0-2.4,0.8-2.4,1.9c0,2.4,3.2,1.9,3.2,3.4c0,0.6-0.6,0.9-1.4,0.9c-0.6,0-1.2-0.2-1.7-0.5l-0.5,1c0.7,0.4,1.4,0.6,2.2,0.6
		c1.4,0,2.7-0.6,2.7-2.1C207.6,186.2,204.4,186.6,204.4,185.2z"/>
	<path class="st1" d="M212.2,184.6h1.1v4.5c0,0.1,0,0.2,0,0.3c0.1,0.8,0.8,1.3,1.6,1.3c0.7,0,1.4-0.3,2-0.7l-0.4-0.9
		c-0.3,0.3-0.8,0.4-1.2,0.5c-0.5,0-0.7-0.3-0.7-0.8v-4.1h1.7l0.4-1h-2.2v-2l-1.3,0.4v1.5h-1.1V184.6z"/>
	<path class="st1" d="M223.5,184.2c-1.3-1.2-3.3-1.2-4.6,0c-1.3,1.6-1.3,3.9,0,5.5c1.3,1.2,3.2,1.2,4.5,0
		C224.7,188.1,224.7,185.8,223.5,184.2L223.5,184.2z M221.1,189.5c-1.2,0-1.9-1-1.9-2.5l0,0c0-1.5,0.7-2.5,1.9-2.5
		c1.2,0,1.9,1,1.9,2.5C223,188.5,222.3,189.5,221.1,189.5z"/>
	<path class="st1" d="M227.2,189.1c0-0.3,0.1-0.5,0.3-0.7c0.2,0.1,0.3,0.1,0.5,0.1c1.6,0.2,3-0.9,3.1-2.5c0-0.7-0.3-1.3-0.8-1.8
		c0.3-0.1,0.7-0.1,1,0l0.3-1.1c-0.7-0.1-1.4,0-2,0.5c0,0-0.1,0-0.2,0c-0.4-0.2-0.8-0.3-1.3-0.3h-0.1c0,0,0,0,0,0
		c-1.4,0-2.5,1.1-2.5,2.5c0,0.9,0.4,1.7,1.1,2.1c-0.5,0.3-0.8,0.8-0.8,1.3c0,0.4,0.2,0.7,0.5,0.9c-0.7,0.3-1.2,0.9-1.3,1.7
		c0,1.1,1.2,2.1,3.3,2.1c2.5,0,3.6-1.1,3.6-2.2C232,189.1,227.2,190.1,227.2,189.1z M228.2,184.4h0.2c0,0,0,0,0,0
		c0.8,0,1.4,0.7,1.3,1.5v0.1c0,0.8-0.6,1.4-1.4,1.4h-0.1c-0.8-0.1-1.3-0.8-1.3-1.5l-0.1-0.1C226.8,185,227.4,184.4,228.2,184.4z
		 M228.5,192.9c-1.3,0-2.1-0.6-2.1-1.2c0.1-0.5,0.4-0.9,0.8-1.1c0.8,0.3,3.3,0.1,3.3,1.3C230.5,192.4,229.8,192.9,228.5,192.9z"/>
	<path class="st1" d="M235.2,183.4C235.2,183.4,235.2,183.4,235.2,183.4c-1.7,0.2-3,1.8-2.7,3.5c0,0.1,0,0.3,0,0.4
		c0,1.8,1.5,3.3,3.3,3.3c0.8,0,1.6-0.3,2.3-0.7l-0.4-0.9c-0.5,0.3-1.1,0.5-1.7,0.5h-0.2c-1.1-0.1-2-1.1-1.9-2.2l4.2,0v-0.3
		C238.1,184.8,237,183.4,235.2,183.4z M233.9,186.2c-0.1-0.9,0.6-1.7,1.6-1.8l0-0.1h0.1c0.9,0.1,1.5,0.9,1.4,1.8H233.9z"/>
	<path class="st1" d="M242.3,189.5c-0.5,0-0.7-0.3-0.7-0.8v-4.1h1.7l0.4-1h-2.1v-2l-1.3,0.4v1.5h-1.1v1h1.1v4.5c0,0.1,0,0.2,0,0.3
		c0.1,0.8,0.8,1.3,1.6,1.3c0.7,0,1.4-0.3,1.9-0.7l-0.4-0.9C243.1,189.3,242.7,189.4,242.3,189.5z"/>
	<path class="st1" d="M248.9,183.3c-0.9,0-1.7,0.4-2.4,1v-4.2h-1.3v10.3h1.3v-4.9c0.5-0.5,1.2-0.9,2-1c1,0,1.2,0.9,1.2,1.7v4.2
		l1.3,0v-4.5C250.9,183.9,249.9,183.3,248.9,183.3z"/>
	<path class="st1" d="M255.5,183.4h-0.2c0,0,0,0,0,0c-1.7,0.2-3,1.8-2.7,3.5c0,0.1,0,0.3,0,0.4c0,1.8,1.5,3.3,3.3,3.3
		c0.8,0,1.6-0.3,2.3-0.7l-0.4-0.9c-0.5,0.3-1.1,0.5-1.7,0.5h-0.2c-1.2-0.1-2-1.1-1.9-2.2l4.4,0v-0.3
		C258.3,184.8,257.3,183.4,255.5,183.4z M253.9,186.2c-0.1-0.9,0.6-1.7,1.6-1.8l0-0.1h0.1c0.9,0.1,1.5,0.9,1.4,1.8H253.9z"/>
	<path class="st1" d="M261.2,184.3l-0.2-0.8H260v6.9h1.3v-5.1c0.4-0.4,0.9-0.7,1.4-0.8c0.2,0,0.5,0,0.7,0.2l0.5-1.2
		c-0.2-0.2-0.5-0.2-0.8-0.2C262.4,183.4,261.7,183.7,261.2,184.3z"/>
	<path class="st2" d="M117.3,138.1c1.6,0.6,3.4,0.9,5.1,0.9c1.8,0,3.7-0.3,5.3-1.1c1.4-0.7,2.6-1.6,3.5-2.8c0.1-0.2,0.1-0.4-0.1-0.5
		l-2.8-1.9c-0.1-0.1-0.4-0.1-0.5,0c-0.6,0.7-1.3,1.3-2.2,1.7c-1.1,0.5-2.2,0.8-3.4,0.8c-1.1,0-2.3-0.2-3.3-0.6c-1-0.4-1.8-1-2.5-1.8
		c-0.7-0.8-1.3-1.8-1.6-2.8c-0.4-1.1-0.6-2.4-0.6-3.6c0-1.2,0.2-2.3,0.6-3.4c0.4-1,1-1.9,1.7-2.7c0.7-0.8,1.6-1.4,2.6-1.9
		c2-0.9,4.3-0.9,6.3-0.1c0.9,0.3,1.6,0.9,2.2,1.6c0.1,0.1,0.4,0.1,0.5,0l2.7-2.1c0.1-0.1,0.1-0.4,0-0.5c-0.4-0.5-0.9-0.9-1.4-1.3
		c-0.7-0.4-1.4-0.8-2.2-1.1c-0.8-0.3-1.6-0.5-2.4-0.7c-0.8-0.1-1.6-0.2-2.4-0.2c-1.8,0-3.5,0.4-5.1,1c-1.5,0.6-2.9,1.4-4.1,2.5
		c-1.2,1.1-2.1,2.4-2.7,3.9c-0.7,1.6-1,3.4-1,5.2c0,1.7,0.3,3.5,0.9,5.1C111.7,134.6,114.2,137,117.3,138.1z"/>
	<path class="st2" d="M133.2,138.3h3.3c0.2,0,0.4-0.2,0.4-0.4v-8.4c0-0.5,0.1-1.1,0.2-1.6c0.1-0.5,0.4-1,0.7-1.4
		c0.3-0.4,0.7-0.8,1.2-1c0.5-0.3,1.1-0.4,1.7-0.4c0.5,0,1.1,0.1,1.6,0.4c0.4,0.3,0.7,0.6,0.9,1c0.2,0.4,0.4,0.9,0.4,1.4
		c0.1,0.5,0.1,0.9,0.1,1.4v8.5c0,0.2,0.2,0.4,0.4,0.4h3.3c0.2,0,0.4-0.2,0.4-0.4v-9.8c0-0.8-0.1-1.6-0.3-2.4
		c-0.2-0.8-0.6-1.5-1.1-2.1c-0.5-0.6-1.1-1.1-1.9-1.4c-0.8-0.4-1.8-0.6-2.7-0.6c-0.6,0-1.2,0.1-1.7,0.3c-0.5,0.1-1,0.4-1.4,0.6
		c-0.4,0.2-0.7,0.5-1.1,0.9c-0.3,0.3-0.5,0.6-0.7,1v-11.2c0-0.2-0.2-0.4-0.4-0.4h-3.3c-0.2,0-0.4,0.2-0.4,0.4v24.6
		C132.8,138.1,133,138.3,133.2,138.3z"/>
	<path class="st2" d="M154.9,138.3c0.2,0,0.4-0.2,0.4-0.4v-15.4c0-0.2-0.2-0.4-0.4-0.4h-3.3c-0.2,0-0.4,0.2-0.4,0.4v15.4
		c0,0.2,0.2,0.4,0.4,0.4H154.9z"/>
	<path class="st2" d="M153.2,119.1c0.7,0,1.4-0.2,1.9-0.7l0.1-0.1c0.9-1,0.8-2.4-0.1-3.3c-0.5-0.5-1.2-0.7-1.9-0.7
		c-0.7,0-1.3,0.3-1.8,0.7c-0.5,0.4-0.7,1.1-0.7,1.7c0,0.6,0.2,1.2,0.7,1.7C151.8,118.8,152.5,119.1,153.2,119.1z"/>
	<path class="st2" d="M159.4,138.3h3.3c0.2,0,0.4-0.2,0.4-0.4v-24.6c0-0.2-0.2-0.4-0.4-0.4h-3.3c-0.2,0-0.4,0.2-0.4,0.4v24.6
		C159.1,138.1,159.2,138.3,159.4,138.3z"/>
	<path class="st2" d="M168,136.2c0.7,0.8,1.5,1.4,2.5,1.9c1,0.5,2.2,0.7,3.3,0.7c1.1,0,2.2-0.2,3.2-0.7c1-0.5,1.8-1.2,2.3-2.2v2
		c0,0.2,0.2,0.4,0.4,0.4h3.1c0.2,0,0.4-0.2,0.4-0.4v-24.6c0-0.2-0.2-0.4-0.4-0.4h-3.2c-0.2,0-0.4,0.2-0.4,0.4v10.9h-0.1
		c-0.2-0.3-0.5-0.6-0.8-0.8c-0.3-0.3-0.7-0.6-1.1-0.8c-1.1-0.6-2.3-0.9-3.5-0.9c-2.2,0-4.2,0.9-5.7,2.4c-0.7,0.8-1.3,1.7-1.6,2.7
		c-0.4,1.1-0.6,2.2-0.6,3.3c0,1.1,0.1,2.3,0.5,3.4C166.7,134.5,167.3,135.4,168,136.2z M170.2,128.2c0.2-0.6,0.5-1.2,0.9-1.7
		c0.4-0.5,0.9-0.9,1.4-1.2c0.6-0.3,1.3-0.5,2.1-0.5c0.7,0,1.4,0.1,2,0.5c0.6,0.3,1.1,0.7,1.5,1.2c0.4,0.5,0.7,1.1,0.9,1.7
		c0.2,0.6,0.3,1.2,0.3,1.9c0,0.7-0.1,1.3-0.3,1.9c-0.2,0.6-0.5,1.2-0.9,1.7c-0.4,0.5-0.9,0.9-1.5,1.2c-1.3,0.6-2.8,0.6-4,0
		c-0.6-0.3-1-0.7-1.4-1.2c-0.4-0.5-0.7-1.1-0.9-1.7c-0.2-0.6-0.3-1.2-0.3-1.9C169.9,129.5,170,128.8,170.2,128.2z"/>
	<path class="st2" d="M187.3,138.3h3.3c0.2,0,0.4-0.2,0.4-0.4v-8.3c0-0.4,0.1-0.8,0.2-1.2c0.1-0.5,0.3-1,0.6-1.4
		c0.3-0.5,0.8-0.9,1.3-1.2c0.7-0.4,1.4-0.5,2.2-0.5h0.6c0.2,0,0.5,0.1,0.7,0.1v-3.7c-0.2,0-0.3-0.1-0.5-0.1h-0.6c-1,0-2,0.3-2.8,0.9
		c-0.8,0.6-1.5,1.4-1.9,2.3v-2.3c0-0.2-0.2-0.4-0.4-0.4h-3.1h0c-0.2,0-0.4,0.2-0.4,0.4v15.4C186.9,138.1,187.1,138.3,187.3,138.3z"
		/>
	<path class="st2" d="M197.1,133.8c0.4,1,1.1,1.9,1.9,2.6c0.7,0.7,1.6,1.3,2.6,1.7c1.1,0.4,2.3,0.6,3.5,0.6c2.6,0.1,5-1,6.7-2.9
		c0.1-0.1,0.1-0.4,0-0.5l-2.1-1.7c-0.1-0.1-0.4-0.1-0.5,0c-0.4,0.5-0.9,0.9-1.4,1.2c-0.8,0.4-1.7,0.6-2.5,0.6
		c-0.6,0-1.1-0.1-1.7-0.3c-0.5-0.2-1-0.5-1.4-0.8c-0.4-0.3-0.8-0.8-1-1.2c-0.2-0.4-0.3-0.7-0.4-1.1c0,0,0-0.1,0-0.1
		c0-0.2,0.2-0.4,0.4-0.4h11.8c0-0.2,0-0.4,0-0.5v-0.5c0-1.3-0.2-2.6-0.6-3.9c-0.3-1-0.9-1.9-1.6-2.7c-0.7-0.7-1.5-1.3-2.5-1.6
		c-1-0.4-2.1-0.6-3.1-0.6c-1.2,0-2.3,0.2-3.4,0.7c-2.1,0.8-3.7,2.4-4.5,4.5c-0.4,1.1-0.7,2.3-0.7,3.5
		C196.4,131.5,196.6,132.7,197.1,133.8z M201.9,125.8c0.9-0.7,1.9-1.1,3.1-1.1c0.6,0,1.2,0.1,1.7,0.3c0.9,0.4,1.6,1.2,1.9,2.1
		c0.1,0.4,0.2,0.7,0.2,1.1c0,0.2-0.2,0.4-0.4,0.4v0h-7.5c0,0,0,0,0,0c-0.2,0-0.4-0.2-0.3-0.4C200.7,127.3,201.2,126.4,201.9,125.8z"
		/>
	<path class="st2" d="M216,138.4h3.2c0.2,0,0.4-0.2,0.4-0.4v-8.5c0-0.5,0.1-1.1,0.2-1.6c0.1-0.5,0.4-1,0.7-1.4
		c0.3-0.4,0.7-0.7,1.2-1c0.5-0.3,1.1-0.4,1.7-0.4c0.5,0,1.1,0.1,1.6,0.4c0.4,0.3,0.7,0.6,0.9,1c0.2,0.4,0.4,0.9,0.4,1.4
		c0.1,0.5,0.1,0.9,0.1,1.4v8.5c0,0.2,0.2,0.4,0.4,0.4h3.2c0.2,0,0.4-0.2,0.4-0.4v-9.8c0-0.8-0.1-1.6-0.3-2.4
		c-0.2-0.8-0.6-1.5-1.1-2.1c-0.5-0.6-1.1-1.1-1.9-1.4c-0.8-0.4-1.8-0.6-2.7-0.6c-1.1,0-2.2,0.3-3.2,1c-0.8,0.5-1.5,1.3-1.9,2.1v-2.2
		c0-0.2-0.2-0.4-0.4-0.4h-3c-0.2,0-0.4,0.2-0.4,0.4V138C215.6,138.2,215.8,138.4,216,138.4z"/>
	<path class="st2" d="M244.8,138.3h3.6c0.2,0,0.3-0.1,0.4-0.3l3.5-11l3.5,11c0,0.2,0.2,0.3,0.4,0.3h3.6c0.2,0,0.3-0.1,0.4-0.3
		l5.3-15.4c0,0,0-0.1,0-0.1c0-0.2-0.2-0.4-0.4-0.4h-3.4c-0.2,0-0.3,0.1-0.4,0.3l-3.3,11.3l-3.4-11.3c0-0.2-0.2-0.3-0.4-0.3h-3.8
		c-0.2,0-0.3,0.1-0.4,0.3l-3.4,11.3l-3.3-11.3c0-0.2-0.2-0.3-0.4-0.3h-3.5l-0.1,0c-0.2,0.1-0.3,0.3-0.2,0.5l5.4,15.4
		C244.5,138.2,244.6,138.3,244.8,138.3z"/>
	<path class="st2" d="M270.7,122.1h-3.3c-0.2,0-0.4,0.2-0.4,0.4v15.4c0,0.2,0.2,0.4,0.4,0.4h3.3c0.2,0,0.4-0.2,0.4-0.4v-15.4
		C271.1,122.3,270.9,122.1,270.7,122.1z"/>
	<path class="st2" d="M269,119.1c0.7,0,1.4-0.2,1.9-0.7l0.1-0.1c0.9-1,0.8-2.4-0.1-3.3c-0.5-0.5-1.2-0.7-1.9-0.7
		c-0.7,0-1.3,0.2-1.8,0.7c-0.5,0.4-0.7,1.1-0.7,1.7c0,0.6,0.3,1.3,0.7,1.7C267.6,118.8,268.3,119.1,269,119.1z"/>
	<path class="st2" d="M272.9,125.4h2.1c0.2,0,0.4,0.2,0.4,0.4v7.1c0,0.7,0.1,1.5,0.2,2.2c0.1,0.7,0.4,1.3,0.8,1.8
		c0.4,0.5,1,1,1.6,1.2c0.8,0.3,1.7,0.5,2.6,0.5c0.5,0,0.9,0,1.4-0.1c0.3-0.1,0.7-0.1,1-0.2c0.2-0.1,0.3-0.2,0.3-0.4l-0.1-2.8
		c-0.3,0.1-0.5,0.2-0.8,0.3c-0.3,0.1-0.6,0.1-0.9,0.1c-0.9,0-1.5-0.2-1.7-0.7c-0.3-0.6-0.4-1.2-0.4-1.8v-7.1c0-0.2,0.2-0.4,0.4-0.4
		h3.3c0.2,0,0.4-0.2,0.4-0.4v-2.5c0-0.2-0.2-0.4-0.4-0.4h-3.3c-0.2,0-0.4-0.2-0.4-0.4v-3.9c0-0.2-0.2-0.4-0.4-0.4h-3.2
		c-0.2,0-0.4,0.2-0.4,0.4v3.9c0,0.2-0.2,0.4-0.4,0.4h-2.1c-0.2,0-0.4,0.2-0.4,0.4v2.5h0C272.5,125.2,272.7,125.4,272.9,125.4z"/>
	<path class="st2" d="M285.4,138.3h3.3c0.2,0,0.4-0.2,0.4-0.4v-8.4c0-0.5,0.1-1.1,0.2-1.6c0.1-0.5,0.4-1,0.7-1.4
		c0.3-0.4,0.7-0.8,1.2-1c0.5-0.3,1.1-0.4,1.7-0.4c0.5,0,1.1,0.1,1.6,0.4c0.4,0.3,0.7,0.6,0.9,1c0.2,0.4,0.4,0.9,0.4,1.4
		c0.1,0.5,0.1,0.9,0.1,1.4v8.5c0,0.2,0.2,0.4,0.4,0.4h3.3c0.2,0,0.4-0.2,0.4-0.4v-9.8c0-0.8-0.1-1.6-0.3-2.4
		c-0.2-0.8-0.6-1.5-1.1-2.1c-0.5-0.6-1.1-1.1-1.9-1.4c-0.8-0.4-1.8-0.6-2.7-0.6c-0.6,0-1.2,0.1-1.7,0.3c-0.5,0.1-1,0.4-1.4,0.6
		c-0.4,0.2-0.7,0.5-1.1,0.9c-0.3,0.3-0.5,0.6-0.7,1v-11.2c0-0.2-0.2-0.4-0.4-0.4h-3.3c-0.2,0-0.4,0.2-0.4,0.4v24.6
		C285.1,138.1,285.2,138.3,285.4,138.3z"/>
	<path class="st2" d="M128.4,164c-0.2-0.1-0.4-0.1-0.5,0.1c-0.6,0.8-1.3,1.5-2.1,2c-1.1,0.5-2.2,0.8-3.4,0.8c-1.1,0-2.3-0.2-3.3-0.6
		c-1-0.4-1.8-1-2.5-1.8c-0.7-0.8-1.3-1.8-1.6-2.8c-0.4-1.1-0.6-2.4-0.6-3.6c0-1.2,0.2-2.3,0.6-3.4c0.4-1,0.9-2,1.7-2.8
		c0.7-0.8,1.6-1.4,2.6-1.9c2-0.9,4.2-0.9,6.3-0.2c0.9,0.3,1.6,0.9,2.2,1.6c0.1,0.1,0.3,0.1,0.5,0l2.7-2.2c0.1-0.1,0.1-0.4,0-0.5
		c-0.4-0.5-0.9-0.9-1.4-1.3c-0.7-0.4-1.4-0.8-2.2-1.1c-0.8-0.3-1.6-0.5-2.4-0.7c-0.8-0.1-1.6-0.2-2.4-0.2c-1.7,0-3.5,0.3-5.1,0.8
		c-1.5,0.6-2.9,1.4-4.1,2.5c-1.2,1.1-2.1,2.4-2.7,3.9c-0.7,1.6-1,3.4-1,5.2c0,1.7,0.3,3.5,0.9,5.1c1.2,3,3.6,5.4,6.6,6.6
		c1.6,0.6,3.4,0.9,5.1,0.9c1.8,0,3.7-0.3,5.3-1.1c1.4-0.7,2.6-1.6,3.6-2.8c0.1-0.2,0.1-0.4-0.1-0.5L128.4,164z"/>
	<path class="st2" d="M134.4,169.1c0.6,0.4,1.3,0.7,2,0.8c0.7,0.2,1.4,0.3,2,0.3c1.1,0,2.1-0.2,3.1-0.7c0.8-0.4,1.5-1,2-1.8h0.1
		l0,1.7c0,0.2,0.2,0.4,0.4,0.4h2.8c0.2,0,0.4-0.2,0.4-0.4v-9.4c0-0.8-0.1-1.6-0.3-2.4c-0.2-0.8-0.6-1.5-1.1-2.2
		c-0.6-0.7-1.3-1.2-2.2-1.6c-1.1-0.4-2.3-0.6-3.5-0.6c-1.2,0-2.5,0.2-3.6,0.6c-1,0.4-2,0.9-2.8,1.7c-0.1,0.1-0.1,0.4,0,0.5l1.6,1.9
		c0.1,0.1,0.4,0.1,0.5,0c0.5-0.4,1.1-0.8,1.7-1c0.8-0.4,1.6-0.5,2.4-0.5c0.9,0,1.8,0.2,2.6,0.7c0.8,0.5,1.2,1.4,1.1,2.3v0.4
		c-1.3,0-2.5,0.1-3.9,0.2c-1.2,0.1-2.4,0.4-3.5,0.8c-1,0.3-1.9,0.9-2.6,1.6c-0.7,0.8-1.1,1.8-1,2.8c0,0.8,0.2,1.7,0.6,2.4
		C133.3,168.1,133.8,168.6,134.4,169.1z M137,163.6c0.4-0.4,1-0.6,1.5-0.8c0.6-0.2,1.3-0.3,2-0.4c0.7-0.1,1.4-0.1,2.1-0.1h0.9
		l-0.1,0.6c0.1,1.1-0.3,2.2-1.1,3c-0.8,0.8-1.9,1.2-3.1,1.1c-0.3,0-0.7,0-1-0.1c-0.3-0.1-0.6-0.2-0.9-0.3c-0.3-0.2-0.5-0.4-0.7-0.6
		c-0.2-0.3-0.3-0.6-0.3-1C136.4,164.5,136.6,164,137,163.6z"/>
	<path class="st2" d="M183.9,165.4c0.4,1,1,1.9,1.8,2.6c0.8,0.7,1.7,1.3,2.7,1.7c1.1,0.4,2.3,0.6,3.5,0.6c2.6,0.1,5-1,6.7-2.9
		c0.1-0.1,0.1-0.4,0-0.5l-2.1-1.7c-0.1-0.1-0.4-0.1-0.5,0c-0.4,0.5-0.9,0.9-1.4,1.2c-0.8,0.4-1.7,0.6-2.5,0.6
		c-0.6,0-1.1-0.1-1.7-0.3c-0.5-0.2-1-0.5-1.4-0.8c-0.4-0.3-0.8-0.8-1-1.2c-0.2-0.4-0.3-0.7-0.4-1.1c0,0,0-0.1,0-0.1
		c0-0.2,0.2-0.4,0.4-0.4h11.9c0-0.2,0-0.4,0-0.5v-0.5c0-1.3-0.2-2.6-0.6-3.8c-0.3-1-0.9-1.9-1.6-2.7c-0.7-0.7-1.6-1.2-2.6-1.6
		c-1-0.4-2.1-0.6-3.1-0.6c-1.2,0-2.3,0.2-3.4,0.6c-2.1,0.8-3.7,2.4-4.5,4.5c-0.4,1.1-0.7,2.3-0.7,3.5
		C183.3,163.1,183.5,164.3,183.9,165.4z M188.8,157.3c0.9-0.7,1.9-1.1,3.1-1.1c0.6,0,1.2,0.1,1.7,0.3c0.9,0.4,1.6,1.2,1.9,2.1
		c0.1,0.4,0.2,0.7,0.2,1.1c0,0.2-0.2,0.4-0.4,0.4v0h-7.5c0,0,0,0,0,0c-0.2,0-0.4-0.2-0.3-0.4C187.7,158.7,188.1,157.9,188.8,157.3z"
		/>
	<path class="st2" d="M154.6,154c0-0.2-0.2-0.4-0.4-0.4h-3.1c-0.2,0-0.4,0.2-0.4,0.4v15.5c0,0.2,0.2,0.4,0.4,0.4h3.3
		c0.2,0,0.4-0.2,0.4-0.4V161c0-0.5,0.1-1.1,0.2-1.6c0.1-0.5,0.4-1,0.7-1.4c0.3-0.4,0.7-0.7,1.2-1c0.5-0.3,1.1-0.4,1.7-0.4
		c0.5,0,1.1,0.1,1.6,0.4c0.4,0.3,0.7,0.6,0.9,1c0.2,0.4,0.4,0.9,0.4,1.4c0.1,0.5,0.1,0.9,0.1,1.4v8.5c0,0.2,0.2,0.4,0.4,0.4h3.2
		c0.2,0,0.4-0.2,0.4-0.4v-9.7c0-0.8-0.1-1.6-0.3-2.4c-0.2-0.8-0.6-1.5-1.1-2.1c-0.5-0.6-1.1-1.1-1.9-1.4c-0.8-0.4-1.8-0.6-2.7-0.6
		c-1.1,0-2.2,0.3-3.1,0.9c-0.8,0.5-1.4,1.3-1.9,2.1V154z"/>
	<path class="st2" d="M173.4,158.2c0.4-0.5,0.9-0.9,1.4-1.2c0.6-0.3,1.3-0.5,2-0.5c0.7,0,1.3,0.2,1.9,0.5c0.4,0.2,0.9,0.5,1.2,0.8
		c0,0,0,0,0,0c0.1,0.1,0.4,0.1,0.5,0l2.1-1.9c0.1-0.1,0.1-0.4,0-0.5c-0.7-0.7-1.5-1.2-2.4-1.6c-2.2-0.8-4.6-0.8-6.8,0
		c-1,0.4-1.9,1-2.7,1.7c-0.8,0.8-1.4,1.7-1.9,2.7c-0.5,1.1-0.7,2.3-0.7,3.5c0,1.2,0.2,2.5,0.7,3.6c0.9,2,2.6,3.6,4.7,4.4
		c1.1,0.4,2.2,0.6,3.4,0.5c1.1,0,2.3-0.2,3.4-0.6c0.9-0.3,1.6-0.8,2.3-1.4c0.1-0.1,0.1-0.4,0-0.5l-2-2c0,0,0,0,0,0
		c-0.1-0.1-0.4-0.1-0.5,0c-0.4,0.4-0.8,0.6-1.3,0.8c-0.6,0.2-1.2,0.4-1.9,0.4c-0.7,0-1.4-0.2-2-0.5c-0.6-0.3-1-0.7-1.4-1.2
		c-0.4-0.5-0.7-1.1-0.9-1.7c-0.2-0.6-0.3-1.2-0.3-1.9c0-0.6,0.1-1.3,0.3-1.9C172.8,159.2,173.1,158.7,173.4,158.2z"/>
	<path class="st2" d="M211.1,153.1c-1,0-2,0.3-2.8,0.9c-0.8,0.6-1.5,1.4-1.9,2.3V154c0-0.2-0.2-0.4-0.4-0.4h-3.2
		c-0.2,0-0.3,0.2-0.3,0.4v15.4c0,0.2,0.2,0.4,0.4,0.4h3.3c0.2,0,0.4-0.2,0.4-0.4v-8.3c0-0.4,0.1-0.8,0.2-1.2c0.1-0.5,0.3-1,0.6-1.4
		c0.3-0.5,0.8-0.9,1.3-1.2c0.7-0.4,1.4-0.5,2.2-0.5h0.6c0.2,0,0.5,0.1,0.7,0.1v-3.8c-0.2,0-0.3-0.1-0.5-0.1H211.1z"/>
	<path class="st2" d="M227.8,166c-0.6-0.3-1.2-0.8-1.6-1.3c-0.4-0.5-0.7-1.2-0.9-1.8c-0.2-0.7-0.3-1.4-0.3-2.1v-14.5
		c0-0.2-0.2-0.4-0.4-0.4h-3.5c-0.2,0-0.4,0.2-0.4,0.4V161c0,1.3,0.2,2.6,0.7,3.9c0.5,1.1,1.1,2.1,2,2.9c0.9,0.8,1.9,1.5,3,1.9
		c2.5,0.9,5.1,0.9,7.6,0c1.1-0.4,2.2-1.1,3-1.9c0.9-0.8,1.6-1.8,2-2.9c0.5-1.2,0.8-2.5,0.7-3.9l0-14.7c0-0.2-0.2-0.4-0.4-0.4H236
		c-0.2,0-0.4,0.2-0.4,0.4v14.5c0,0.7-0.1,1.4-0.3,2.1c-0.2,0.7-0.5,1.3-0.9,1.8c-0.4,0.6-1,1-1.6,1.3
		C231.2,166.7,229.4,166.7,227.8,166z"/>
	<path class="st2" d="M252.9,157.2c-0.1-0.1-0.1-0.4,0-0.5l10.2-10.1c0.1-0.1,0.1-0.2,0.1-0.3c0-0.2-0.2-0.4-0.4-0.4h-4.6
		c-0.1,0-0.2,0-0.3,0.1l-9.8,10.2H248v-9.9c0-0.2-0.2-0.4-0.4-0.4h-3.5c-0.2,0-0.4,0.2-0.4,0.4v23c0,0.2,0.2,0.4,0.4,0.4h3.5
		c0.2,0,0.4-0.2,0.4-0.4v-11.6h0.1l10.3,11.8c0.1,0.1,0.2,0.1,0.3,0.1h4.9c0.1,0,0.2,0,0.3-0.1c0.2-0.1,0.2-0.4,0-0.5L252.9,157.2z"
		/>
	<path class="st1" d="M351.2,157.2C351.2,157.2,351.2,157.2,351.2,157.2l0.2,0c0.4,0,0.7-0.3,0.8-0.7c0.6-2.3,0.8-4.1,0.9-5.5
		c-0.4,0.6-1.1,1.3-1.9,1.9c-0.1,0.9-0.3,2-0.6,3.2C350.4,156.6,350.7,157.1,351.2,157.2z"/>
	<path class="st1" d="M355.3,135.1c0,0.6,0.5,1,1,1h7.4c0.6,0,1-0.5,1-1s-0.5-1-1-1h-7.4C355.8,134.1,355.3,134.6,355.3,135.1z"/>
	<path class="st1" d="M355.9,132.2c0.2,0,0.4,0,0.5-0.1l6.4-3.7c0.5-0.2,0.7-0.8,0.5-1.4c-0.2-0.5-0.8-0.7-1.4-0.5l-0.2,0.1
		l-6.4,3.7c-0.5,0.3-0.6,0.9-0.4,1.4C355.2,132,355.5,132.2,355.9,132.2z"/>
	<path class="st1" d="M355.2,139.8l0.2,0.1l6.4,3.7c0.4,0.4,1.1,0.3,1.4-0.1c0.4-0.4,0.3-1.1-0.1-1.4l-0.1-0.1l-0.2-0.1l-6.4-3.7
		c-0.4-0.4-1.1-0.3-1.4,0.1c-0.4,0.4-0.3,1.1,0.1,1.4L355.2,139.8z"/>
	<path class="st2" d="M301.2,161.9l2.5-1.4c-5.9-1.1-11.4-3.7-16.1-7.4c-0.3-0.2-0.7-1.6-1.1-1.9c-1.1-1.2-1.4-0.8-2.5-2.5
		c-0.4-0.6-0.9-0.6-1-0.5c-0.6,0.7,1.2,2.7,0.2,3.2c-0.3,0.1-0.6,0-1-0.6c-0.7-0.9-1-2-0.8-3.1c0-0.7-0.9-0.4-0.9,0.2
		c0,0.2-0.2,1.2-0.2,1.4c-0.2-0.3-0.2-1.4-0.4-1.7c-0.3-0.3-0.8,0.2-0.8,0.9c-0.2,5.8,4.9,6,6,7.1c4.3,4,8.9,7.8,13.7,11.3v-0.6
		c0-0.9,0.3-1.8,0.7-2.6C299.7,163,300.3,162.4,301.2,161.9z"/>
	<path class="st2" d="M348.6,148.1c-1.2,1.2-0.6,1.7-1.1,2.6l-0.2,0.3c-2.6,2.9-5.9,5.2-9.5,6.7c-1.4,0.6-2.8,1.1-4.2,1.6
		c-5.6,1.7-11.5,2.6-17.4,2.5c-2.4,0-4.8-0.2-7.2-0.4l0,0l-6.1,3.6c-0.6,0.3-0.9,0.9-0.9,1.6v2.9l1.1,0.8c2.3,1.5,2.4,4.2,2.4,7.1
		v9.2c0,1.6,1.3,2.3,2.8,3.1c1.1,0.6,9.4,5.7,11.9,7c1.4,0.6,3,0,3.7-1.4c0.8-3,3.1-14.8,3.7-17.6c1.4-6.4,2.7-7.1,7.3-9.5
		c2.3-1.2,4.4-2.6,6.5-4.1l0,0c0.4-0.3,0.8-0.6,1.2-0.9c0.2-0.1,0.4-0.3,0.6-0.5c0.4-0.3,0.7-0.6,1.1-0.9l0,0c0,0,0,0,0,0
		c2.4-2.1,4.4-4.5,6-7.2c0.2-0.4,0.4-0.7,0.6-1.1c0.1-0.1,0.2-0.1,0.3-0.2c0.8-0.6,1.5-1.2,1.9-1.9c0.6-0.9,0.8-1.9,0.6-2.8
		c-0.2-0.6-0.5-1.2-1-1.6c-0.1-0.6-0.6-1.1-1.3-1c0,0,0,0,0,0.1c-0.2,0.9-0.1,1.6-0.4,1.6c-1.1-0.2-0.8-1.6-1.7-1.7
		c-0.1,0-0.3,0-0.5,0C348.5,145.8,349.4,147.4,348.6,148.1z"/>
	<path class="st1" d="M326.3,151.3c-0.4,1-0.9,2-1.5,2.8l8.8,5.1c1.4-0.4,2.9-1,4.2-1.6l-11.5-6.7V151.3z"/>
	<path class="st1" d="M325.8,204.7l19.4-11.2c1.6-0.9,2.6-2.7,2.6-4.5v-22.5c0-0.6,0.3-1.2,0.9-1.6l19.4-11.2
		c1.6-0.9,2.6-2.7,2.6-4.5v-22.4c0-0.6,0.3-1.2,0.9-1.6l9.8-5.7c0.8-0.5,1.1-1.4,0.7-2.3c-0.5-0.8-1.5-1.1-2.3-0.6l-9.8,5.7
		c-0.6,0.3-1.2,0.3-1.8,0l-19.4-11.2c-1.6-0.9-3.6-0.9-5.3,0L324,122.4c-0.6,0.3-1.2,0.3-1.8,0l-9.8-5.7c-0.9-0.3-1.9,0.2-2.2,1.1
		c-0.2,0.7,0,1.4,0.5,1.9l9.8,5.7c0.6,0.3,0.9,0.9,0.9,1.6v10.3c0.5,0.3,0.9,0.7,1.3,1.1c0.1,0,0.1,0.1,0.2,0.1
		c0.3,0.3,0.5,0.6,0.8,0.8c0.1,0.1,0.2,0.2,0.4,0.4l0.1,0.2c0.1,0.1,0.2,0.2,0.3,0.2c0,0,0.1,0.1,0.1,0.1c0,0,0.1,0,0.1,0
		c0.1,0,0.1,0,0.2,0.1v-13.4c0-0.6,0.3-1.2,0.9-1.6l17.9-10.4c0,0.1,0,0.3,0,0.4c0.1,0.6,0.5,1.2,1,1.6c-1.7-0.2-3.4,0.2-4.9,1
		c-0.6,0.4-2.9,5.7-3.6,6.8c-0.8,1.4-2,2.5-3.5,3.2c-0.7,0.5-1.3,1.1-1.8,1.9c0,0,2.4,2.2,10.2,4.2c1.9,0.5,3.5,0.8,4.8,1
		c0,0.1,0,0.2,0,0.3c0.1,1.1,0.9,2,2,2.2l0.1,1.7c-0.2,0.2-0.3,0.4-0.3,0.7c0,2,0.5,3.9,1.4,5.6c0.9,0.1,0.6,1.5,1.7,1.7
		c0.3,0.1,0.2-0.7,0.4-1.6c-1.1-1.8-1.8-3.8-1.8-5.9c0-0.3-0.1-0.5-0.3-0.6l-0.1-1.7c0.9-0.3,1.6-1.1,1.7-2.1c0.4,0,0.9,0,1.3-0.1
		c0-0.9-0.3-1.7-0.7-2.5c-0.9-1.3-1.5-2.9-1.5-4.5c0-1.3,0.5-7.1,0.2-7.7c-0.8-1.5-2.1-2.6-3.7-3.3c1.2-0.2,2-1.2,2-2.4l17.8,10.3
		c0.6,0.3,0.9,0.9,0.9,1.6v22.4c0,0.6-0.3,1.2-0.9,1.6l-19.4,11.2c-0.6,0.3-1.2,0.3-1.8,0l-0.8-0.5l0,0c-0.3,0.3-0.7,0.6-1.1,0.9
		c-0.2,0.2-0.4,0.3-0.6,0.5c-0.4,0.3-0.8,0.6-1.2,0.9l0,0l2,1.1c0.6,0.3,0.9,0.9,0.9,1.6v22.4c0,0.6-0.3,1.2-0.9,1.6l-19.4,11.2
		c-0.6,0.3-1.2,0.3-1.8,0l-19.4-11.2c-0.6-0.3-0.9-0.9-0.9-1.6v-19.5v-2.9c0-0.6,0.3-1.2,0.9-1.6l6.1-3.6l0,0l5.9-3.4
		c-1.5-0.2-3-0.7-4.3-1.5l-6.9,4l-0.1,0l-2.5,1.4c-0.8,0.5-1.5,1.2-1.9,1.9c-0.4,0.8-0.7,1.7-0.7,2.6v22.4c0,1.9,1,3.6,2.6,4.5
		l19.4,11.2c0.5,0.3,0.9,0.9,0.9,1.5v4.7v6.6c0,1,0.8,1.7,1.7,1.7c1,0,1.7-0.8,1.7-1.7v-6.6v-4.6C324.9,205.6,325.2,205,325.8,204.7
		z M336.5,130.4L336.5,130.4c-0.1,0.4-0.4,0.6-0.8,0.5h-0.1c-0.8-0.2-1.5-0.5-2.2-1c-0.2-0.1-0.3-0.3,0-0.6c0.6-0.6,2.1-1.7,2.6-2.1
		c1.8-1.6,3.5-7.7,5-8.5C337.7,126.6,337,129.3,336.5,130.4z M346.5,135.5C346.5,135.5,346.5,135.5,346.5,135.5l1,0.2
		c0.1,0,0.1,0.1,0.1,0.1v1.1c0,0.1,0,0.1-0.1,0.1l0,0.1c-0.6-0.3-1-0.8-1.1-1.4C346.3,135.6,346.4,135.5,346.5,135.5z M346,115.5
		c-0.5,0-0.9-0.4-0.9-1c0-0.3,0.1-0.5,0.3-0.6c0.4-0.1,0.9-0.1,1.3,0.1c0.2,0.2,0.2,0.4,0.2,0.6C346.9,115.2,346.5,115.6,346,115.5z
		"/>
	<path class="st2" d="M322.3,156.2c1.7-1.2,3-2.9,3.8-4.9c0.1-0.4,0.3-0.8,0.4-1.2c0.5-1.2,1.6-2.5,0.7-2.5c-0.7,0-1.4-0.1-2-0.4
		c-0.1,0-0.1-0.1-0.1-0.2c0,0,0-0.1,0.1-0.1c0.7-0.2,1.3-0.6,1.8-1.1c0.4-0.5,0.5-1.2,0.3-1.8c-0.1-0.2-0.5-0.9-0.6-1
		c-0.1-0.1,0.2-0.7,0.3-0.8c0.4-0.5,0.4-1.2,0-1.7c-0.5-0.7-1.1-0.5-1.6-0.5c-0.1,0-0.3,0-0.4,0c-0.1,0-0.1,0-0.2-0.1
		c0,0-0.1,0-0.1,0c0,0-0.1,0-0.1-0.1c-0.1-0.1-0.3-0.2-0.4-0.3l-0.1-0.2c-0.1-0.1-0.2-0.2-0.3-0.3c-0.2-0.3-0.5-0.6-0.8-0.8
		c0,0-0.1-0.1-0.2-0.1c-0.4-0.4-0.8-0.8-1.3-1.1c-1.7-1.2-3.7-2-5.8-2.2c0-1.1,0.7-2,1.8-2.3c-2.5-1.1-5.6,0.7-6.5,2.3
		c-0.9,0.3-1.8,0.8-2.5,1.3c-4.7,3.5-6.1,10-3.2,15.2c1.3,2.8,2.4,2.5,1.8,5.2c1,0.1,2.1-0.1,3-0.6c0.2,0.2,0.5,0.3,0.7,0.4
		c1.3,0.8,2.8,1.3,4.3,1.5C317.4,158.3,320.1,157.7,322.3,156.2z M321,139.7c0.2-0.4,0.8-0.3,1.3,0c-0.1-0.1-0.3-0.1-0.4,0
		c-0.3,0.3-0.3,0.9,0,1.2c0.2,0.2,0.5,0.3,0.8,0.2c0.2-0.1,0.3-0.4,0.3-0.6c0.1,0.3,0.2,0.6,0.2,0.8c0,0.5-0.5,1.2-1.6,1.2v0
		c-0.4,0-0.7-0.2-0.8-0.6C320.6,141.2,320.7,140.4,321,139.7z"/>
	<path class="st1" d="M400.6,204c0,5-2.7,9.6-7,12.1l-150.2,86.7c-4.3,2.5-9.6,2.5-13.9,0L79.3,216.1c-4.3-2.5-7-7.1-7-12.1V46.6
		H45.6V204c0,14.5,7.8,28,20.4,35.3L216.1,326c4.2,2.4,6.8,6.8,6.9,11.7v87.4c0,7.4,6,13.4,13.4,13.4c7.4,0,13.4-6,13.4-13.4v-87.4
		c0.1-4.8,2.8-9.2,6.9-11.7L407,239.3c12.6-7.3,20.3-20.7,20.4-35.3V46.6h-26.8V204z"/>
</g>
</svg>
